<?xml version="1.0" encoding="utf-8"?>
<!-- Generator: Adobe Illustrator 19.0.0, SVG Export Plug-In . SVG Version: 6.00 Build 0)  -->
<svg version="1.1" id="Layer_1" xmlns="http://www.w3.org/2000/svg" xmlns:xlink="http://www.w3.org/1999/xlink" x="0px" y="0px"
	 viewBox="0 0 48.2 48.2" style="enable-background:new 0 0 48.2 48.2;" xml:space="preserve">
<style type="text/css">
	.st0{fill:#468DCB;}
</style>
<path class="st0" d="M41.7,28.1l-3.5-8.8c-0.9-2.3-3.1-3.7-5.6-3.7h-2.1c1.5-1.6,2.5-3.8,2.5-6.2c0-4.9-4-8.9-8.9-8.9
	s-8.9,4-8.9,8.9c0,2.4,0.9,4.6,2.5,6.2h-2.1c-2.5,0-4.6,1.5-5.6,3.7l-3.5,8.8c-0.9,2.2-0.3,4.7,1.5,6.2l4.9,4.1
	c1.1,5.2,5.7,9.2,11.3,9.2c5.5,0,10.2-3.9,11.3-9.2l4.9-4.1C41.9,32.8,42.6,30.3,41.7,28.1z M17.8,9.4c0-3.4,2.8-6.2,6.2-6.2
	s6.2,2.8,6.2,6.2c0,3.4-2.8,6.2-6.2,6.2S17.8,12.8,17.8,9.4z M15.9,39.3l1.3,0.2l0.7-2h2.1c0.4,1.3,1.4,2.3,2.7,2.7v4.5
	C19.5,44.2,17,42.1,15.9,39.3z M18.1,29.7c1.6-1.4,3.6-2.3,5.9-2.3c2.3,0,4.3,0.9,5.9,2.3l-2,0.6l1.5,4.5h-1.2
	c-0.6-1.7-2.2-2.9-4.1-2.9s-3.5,1.2-4.1,2.9h-1.2l1.5-4.5L18.1,29.7z M24,37.6c-0.8,0-1.5-0.7-1.5-1.5c0-0.8,0.7-1.5,1.5-1.5
	s1.5,0.7,1.5,1.5C25.5,36.9,24.8,37.6,24,37.6z M25.4,44.7v-4.5c1.3-0.4,2.3-1.4,2.7-2.7h2.1l0.7,2l1.3-0.2
	C31,42.1,28.5,44.2,25.4,44.7z M38.3,32.2l-4.8,4.1l-0.8,0.1l-1.4-4.3l1.2-0.3l1.5,0l0.1-2.8L33,29c-2.1-2.7-5.4-4.4-9-4.4
	c-3.7,0-6.9,1.7-9,4.4l-1.1,0l0.1,2.8l1.5,0l1.2,0.3l-1.4,4.3l-0.8-0.1l-4.8-4.1c-0.9-0.8-1.2-2-0.8-3.1l3.5-8.8c0.5-1.2,1.7-2,3-2
	h17.1c1.3,0,2.5,0.8,3,2l3.5,8.8C39.5,30.2,39.2,31.4,38.3,32.2z"/>
</svg>
