<svg id="Capa_1" data-name="Capa 1" xmlns="http://www.w3.org/2000/svg" viewBox="0 0 512 459.37"><defs><style>.cls-1{fill:#f2bb00;}</style></defs><path class="cls-1" d="M503.84,369.06l-195.7-339a60.21,60.21,0,0,0-104.28,0l-195.7,339A60.21,60.21,0,0,0,60.3,459.37H451.7a60.21,60.21,0,0,0,52.14-90.31Zm-26,45.21a29.9,29.9,0,0,1-26.16,15.11H60.3a30.22,30.22,0,0,1-26.16-45.32l195.7-339a30.21,30.21,0,0,1,52.32,0l195.7,339A29.91,29.91,0,0,1,477.86,414.27Z"/><rect class="cls-1" x="241" y="149.69" width="30" height="149.98"/><path class="cls-1" d="M256,329.67a20,20,0,1,0,20,20A20,20,0,0,0,256,329.67Z"/></svg>