<svg clip-rule="evenodd" fill-rule="evenodd" image-rendering="optimizeQuality" shape-rendering="geometricPrecision" text-rendering="geometricPrecision" viewBox="0 0 21 21" xmlns="http://www.w3.org/2000/svg"><g id="&#x56FE;&#x5C42;_x0020_1"><path d="m0 0h27.487v27.487h-27.487z" fill="none" transform="matrix(0 -.764 -.764 0 21 21)"/><g fill="#f00" fill-rule="nonzero"><path d="m19.11 10.5c0-2.37717-.96394-4.52972-2.52212-6.08785-1.55812-1.55817-3.71068-2.52212-6.08785-2.52212s-4.52972.96394-6.08789 2.52212c-1.55817 1.55812-2.52212 3.71073-2.52212 6.08785s.96394 4.52972 2.52212 6.08785c1.55817 1.55817 3.71073 2.52212 6.08789 2.52212 2.37717 0 4.52972-.96394 6.08785-2.52212 1.55817-1.55812 2.52212-3.71068 2.52212-6.08785zm-1.92823-6.68173c1.71017 1.71012 2.76816 4.07265 2.76816 6.68173s-1.058 4.97161-2.76816 6.68173c-1.71012 1.71017-4.07265 2.76816-6.68173 2.76816s-4.97161-1.058-6.68178-2.76816c-1.71017-1.71012-2.76816-4.0727-2.76816-6.68173s1.058-4.97161 2.76816-6.68173c1.71017-1.71017 4.0727-2.76816 6.68178-2.76816s4.97161 1.058 6.68173 2.76816z"/><path d="m7.51085 14.083c-.16395.16395-.42994.16395-.59388 0-.16395-.16395-.16395-.42994 0-.59388l6.5721-6.5721c.16395-.16395.42994-.16395.59388 0 .16395.16395.16395.42994 0 .59388z"/><path d="m6.91697 7.51085c-.16395-.16395-.16395-.42994 0-.59388.16395-.16395.42994-.16395.59388 0l6.5721 6.5721c.16395.16395.16395.42994 0 .59388-.16395.16395-.42994.16395-.59388 0z"/></g></g></svg>