<svg width="17" height="17" viewBox="0 0 17 17" fill="none" xmlns="http://www.w3.org/2000/svg">
<path fill-rule="evenodd" clip-rule="evenodd" d="M16.9999 2.4661C16.9999 1.10561 16.0275 0.00272642 14.8279 0.00272642H2.26484C1.16264 -0.0558506 0.198188 0.835739 0.0265559 2.07192C-0.145077 3.30809 0.531114 4.49268 1.59585 4.82108V13.6892C1.59584 15.5139 2.89753 16.9946 4.50638 17H12.569C13.3447 17.0026 14.0895 16.6549 14.6388 16.0338C15.1881 15.4126 15.4969 14.569 15.4969 13.6892V4.82108C16.3982 4.49349 17.0071 3.53946 16.9999 2.4661ZM12.5777 15.5121H4.51507C4.08878 15.5121 3.67996 15.3201 3.37853 14.9782C3.0771 14.6363 2.90776 14.1727 2.90776 13.6892V4.92947H14.2024V13.6892C14.2024 14.1761 14.0307 14.6428 13.7255 14.9852C13.4203 15.3276 13.007 15.5174 12.5777 15.5121ZM2.26484 3.45145H14.8279C15.3077 3.45145 15.6967 3.01029 15.6967 2.4661C15.6967 1.9219 15.3077 1.48075 14.8279 1.48075H2.26484C1.78501 1.48075 1.39602 1.9219 1.39602 2.4661C1.39602 3.01029 1.78501 3.45145 2.26484 3.45145Z" fill="black"/>
<path d="M10.5012 7.52093H6.59154C6.23166 7.52093 5.93992 7.8518 5.93992 8.25994C5.93992 8.66809 6.23166 8.99896 6.59154 8.99896H10.5012C10.8611 8.99896 11.1528 8.66809 11.1528 8.25994C11.1528 7.8518 10.8611 7.52093 10.5012 7.52093Z" fill="black"/>
</svg>
