<svg width="16" height="16" viewBox="0 0 16 16" fill="none" xmlns="http://www.w3.org/2000/svg">
<path d="M1.2471 0C1.17423 0 1.10178 0 1.02891 0C0.920644 0.0770332 0.803637 0.144905 0.705784 0.234014C0.541307 0.383916 0.383076 0.542147 0.23359 0.70704C0.144898 0.804893 0.0770259 0.922316 -7.24604e-06 1.03058C-7.24604e-06 1.10345 -7.24604e-06 1.17632 -7.24604e-06 1.24919C0.135321 1.51735 0.271065 1.78509 0.405145 2.05408C0.718691 2.68159 1.03224 3.30868 1.34329 3.93744C1.4249 4.10191 1.54191 4.21767 1.72762 4.24474C2.3901 4.34092 3.05259 4.43628 3.71591 4.52747C3.82375 4.54204 3.9087 4.57702 3.9874 4.65614C4.84059 5.51599 5.69712 6.37293 6.55281 7.23071C6.58487 7.26277 6.61402 7.29775 6.64733 7.33439C6.62943 7.35688 6.6186 7.37437 6.60444 7.38852C5.88116 8.11388 5.15705 8.83799 4.43586 9.56544C4.3734 9.62831 4.31885 9.6304 4.24306 9.60541C3.94034 9.50506 3.62846 9.46092 3.3095 9.45384C1.77925 9.4197 0.428047 10.4744 0.0911835 11.9722C0.0549571 12.1338 0.0299732 12.2982 -7.24604e-06 12.4611C-7.24604e-06 12.6276 -7.24604e-06 12.7942 -7.24604e-06 12.9607C0.00998625 13.0111 0.0237286 13.0611 0.0299746 13.1123C0.0720305 13.4608 0.165719 13.7948 0.31812 14.11C0.469688 14.4244 0.826122 14.4852 1.08262 14.2461C1.12801 14.2037 1.1709 14.1583 1.21503 14.1141C1.71388 13.6145 2.21272 13.114 2.71281 12.6155C2.7482 12.5801 2.79276 12.5323 2.83523 12.5302C3.04051 12.5214 3.24621 12.526 3.46107 12.526C3.46107 12.7163 3.45524 12.887 3.46357 13.0577C3.46857 13.156 3.43317 13.221 3.36572 13.288C2.83523 13.8152 2.31515 14.3527 1.77675 14.8716C1.51526 15.1239 1.54482 15.5557 1.9354 15.7014C2.12444 15.7718 2.31515 15.8393 2.50878 15.8946C2.6566 15.9371 2.81025 15.9588 2.9614 15.99C3.16918 15.99 3.37696 15.99 3.58474 15.99C3.61889 15.98 3.65261 15.9659 3.68717 15.9613C4.63281 15.833 5.39523 15.3887 5.93946 14.6038C6.5424 13.734 6.67606 12.7779 6.38292 11.7632C6.35211 11.6566 6.36835 11.5933 6.44538 11.5192C6.67398 11.2993 6.89509 11.072 7.11911 10.8475C7.18365 10.7826 7.24902 10.718 7.31773 10.6497C7.36645 10.6964 7.40434 10.7313 7.44056 10.7676C7.74204 11.069 8.04309 11.3709 8.34414 11.6728C9.5342 12.8654 10.7255 14.0563 11.9135 15.2509C12.2641 15.6032 12.6722 15.8434 13.1602 15.9434C13.2305 15.9579 13.3009 15.9742 13.3713 15.9896C13.5478 15.9896 13.7244 15.9896 13.9014 15.9896C13.9347 15.9792 13.9676 15.9642 14.0017 15.9588C15.3121 15.7506 16.189 14.4585 15.9059 13.1581C15.8018 12.6805 15.5661 12.282 15.223 11.9389C13.7336 10.4503 12.2466 8.95875 10.7592 7.46847C10.7159 7.42516 10.6743 7.38019 10.6247 7.32814C10.9362 7.01835 11.2393 6.71896 11.5391 6.41624C11.5929 6.36211 11.642 6.36586 11.707 6.38668C11.9897 6.47828 12.2803 6.53116 12.5781 6.53783C13.6661 6.56239 14.5622 6.15849 15.2521 5.31529C15.6869 4.78397 15.9076 4.16187 15.9529 3.48023C15.9896 2.93059 15.8859 2.40385 15.6548 1.90293C15.5848 1.75136 15.4782 1.64976 15.3117 1.6152C15.1243 1.57606 14.9794 1.64768 14.8503 1.77759C14.319 2.31224 13.786 2.84565 13.2522 3.37822C13.2172 3.41319 13.1718 3.46066 13.1298 3.46275C12.9245 3.47149 12.7184 3.46691 12.5006 3.46691C12.5006 3.28328 12.5056 3.11755 12.4989 2.95224C12.4948 2.85106 12.5252 2.77861 12.598 2.70615C13.1335 2.17567 13.6661 1.64185 14.1966 1.10636C14.4714 0.829044 14.4085 0.464697 14.0521 0.308132C13.8535 0.221106 13.6444 0.155732 13.4358 0.0953549C13.283 0.051217 13.1231 0.0312301 12.9666 0.000416802C12.7796 0.000416802 12.5926 0.000416802 12.4057 0.000416802C12.3715 0.0099939 12.3378 0.0208203 12.3036 0.0291482C12.0521 0.0895256 11.7919 0.124918 11.5508 0.213194C9.93019 0.806558 9.06826 2.57041 9.57959 4.23183C9.60874 4.32593 9.60582 4.38798 9.52962 4.46376C8.82133 5.16622 8.11804 5.87409 7.41308 6.57988C7.38477 6.6082 7.35229 6.63318 7.31981 6.6615C7.29774 6.64359 7.28067 6.63193 7.26651 6.61777C6.38167 5.73168 5.49641 4.84601 4.61491 3.95659C4.56827 3.90954 4.53745 3.83334 4.52746 3.7663C4.42878 3.1034 4.33342 2.44008 4.24348 1.77593C4.21642 1.57689 4.11939 1.44031 3.94201 1.3537C3.76504 1.26751 3.58891 1.1784 3.41319 1.09012C2.69074 0.726194 1.96913 0.363097 1.2471 0ZM2.95557 15.026C3.01136 14.9669 3.04593 14.929 3.08215 14.8924C3.46024 14.5131 3.83708 14.1329 4.21766 13.756C4.33967 13.6353 4.39963 13.4979 4.39755 13.3251C4.39338 12.9191 4.39713 12.5131 4.39588 12.1075C4.39463 11.7757 4.20642 11.5883 3.87164 11.587C3.47689 11.5854 3.08215 11.5908 2.68741 11.585C2.49795 11.582 2.34846 11.6482 2.21647 11.7832C1.84546 12.1621 1.46862 12.5352 1.09386 12.9103C1.05805 12.9462 1.01975 12.9799 0.975607 13.0215C0.96603 12.9899 0.958535 12.9707 0.955204 12.9512C0.949375 12.9153 0.943129 12.8791 0.942713 12.8429C0.923142 11.9131 1.28665 11.1806 2.09196 10.7047C2.76069 10.3095 3.46857 10.285 4.18644 10.5806C4.30303 10.6285 4.41795 10.6697 4.54745 10.651C4.69152 10.6297 4.78688 10.5361 4.88306 10.4395C6.3442 8.97457 7.80616 7.51011 9.26771 6.04565C9.66786 5.64466 10.0664 5.24159 10.4694 4.8431C10.6068 4.70694 10.6651 4.55079 10.6239 4.36258C10.6098 4.29762 10.5781 4.23599 10.5515 4.17395C10.3803 3.77088 10.327 3.3499 10.3949 2.9206C10.5702 1.81382 11.4163 1.03516 12.5298 0.945218C12.6813 0.933143 12.8354 0.923149 13.0007 0.997268C12.9682 1.04099 12.9191 1.06431 12.8829 1.10053C12.5139 1.46696 12.1512 1.83922 11.7786 2.20148C11.6258 2.35014 11.5583 2.5167 11.5633 2.72906C11.5725 3.1034 11.5762 3.47857 11.5629 3.85291C11.5508 4.18769 11.7811 4.41879 12.1075 4.40671C12.4964 4.39256 12.8866 4.39839 13.2759 4.40546C13.4666 4.40921 13.6145 4.34342 13.7465 4.20893C14.1175 3.83001 14.4943 3.45692 14.8691 3.08174C14.9045 3.04593 14.9423 3.01262 14.9944 2.96349C15.0052 3.02928 15.0165 3.07383 15.0194 3.1188C15.0365 3.3803 15.0119 3.63846 14.9428 3.89163C14.5697 5.25866 13.0985 5.97153 11.7907 5.41939C11.4613 5.28031 11.3293 5.30488 11.0811 5.55347C9.23356 7.40435 7.38643 9.25522 5.5393 11.1061C5.29863 11.3476 5.27156 11.4879 5.40606 11.804C5.50891 12.0451 5.56762 12.2957 5.58802 12.5577C5.67505 13.6815 4.93844 14.7121 3.84915 14.9811C3.56642 15.0519 3.27869 15.0777 2.95557 15.026ZM7.99895 9.99641C8.66477 9.32768 9.31726 8.6731 9.97475 8.0127C10.006 8.04268 10.0439 8.07724 10.0801 8.11388C11.5716 9.60791 13.0627 11.1019 14.5539 12.596C14.5942 12.6364 14.6346 12.6772 14.6729 12.7196C15.051 13.1406 15.1268 13.7852 14.8807 14.2436C14.8382 14.2024 14.7979 14.1637 14.7583 14.1241C13.8585 13.2226 12.9586 12.3207 12.0584 11.4196C12.0143 11.3755 11.9718 11.3285 11.9218 11.2922C11.7707 11.1823 11.6062 11.1644 11.4367 11.2435C11.271 11.321 11.1873 11.4596 11.1756 11.6391C11.1648 11.8073 11.2473 11.9347 11.3626 12.0505C12.2749 12.9616 13.1852 13.8751 14.0958 14.7879C14.1354 14.8274 14.1741 14.8678 14.2195 14.914C14.0475 15.0048 13.8764 15.0435 13.699 15.0514C13.2576 15.0714 12.8928 14.9078 12.5822 14.5959C11.0894 13.0961 9.59333 11.5995 8.09847 10.1018C8.06266 10.0647 8.02768 10.0264 7.99895 9.99641ZM3.55143 3.55893C3.07508 3.49148 2.61912 3.42902 2.16442 3.35865C2.12403 3.3524 2.07781 3.3041 2.0574 3.26329C1.73053 2.61455 1.40991 1.96289 1.08054 1.31539C1.03432 1.22462 1.07263 1.18423 1.12759 1.13218C1.17964 1.08263 1.2217 1.02059 1.30956 1.08096C1.37327 1.12468 1.44738 1.15175 1.51692 1.18673C2.08697 1.47196 2.6566 1.75761 3.22706 2.04284C3.29285 2.07573 3.35114 2.10488 3.3628 2.19441C3.42068 2.6412 3.48564 3.08799 3.55143 3.55893Z" fill="#2B2D42"/>
</svg>
