<svg width="17" height="16" viewBox="0 0 17 16" fill="none" xmlns="http://www.w3.org/2000/svg">
<path d="M14.4442 0.077774H2.17499C0.975957 0.077774 0 1.05373 0 2.25276V10.1324C0 11.3314 0.975957 12.3074 2.17499 12.3074H6.28237L5.90649 14.4004H4.49609C4.21892 14.4004 3.99417 14.6251 3.99417 14.9023C3.99417 15.1795 4.21892 15.4042 4.49609 15.4042H12.1231C12.4002 15.4042 12.625 15.1795 12.625 14.9023C12.625 14.6251 12.4002 14.4004 12.1231 14.4004H10.7132L10.3373 12.3074H14.4442C15.6432 12.3074 16.6192 11.3314 16.6192 10.1324V2.25276C16.6192 1.05317 15.6432 0.077774 14.4442 0.077774ZM2.17499 1.08162H14.4442C15.09 1.08162 15.6153 1.60696 15.6153 2.25276V8.95843H1.00384V2.25276C1.00384 1.60696 1.52919 1.08162 2.17499 1.08162ZM9.6932 14.4004H6.92595L7.30183 12.3074H9.31732L9.6932 14.4004ZM14.4442 11.3035H2.17499C1.52919 11.3035 1.00384 10.7787 1.00384 10.1324V9.96227H15.6153V10.1324C15.6153 10.7782 15.09 11.3035 14.4442 11.3035Z" fill="#2B2D42"/>
<path d="M7.80545 4.44337H12.6897C12.9669 4.44337 13.1916 4.21862 13.1916 3.94145C13.1916 3.66428 12.9669 3.43953 12.6897 3.43953H7.80545C7.52828 3.43953 7.30353 3.66428 7.30353 3.94145C7.30353 4.21862 7.52828 4.44337 7.80545 4.44337Z" fill="#2B2D42"/>
<path d="M7.80545 6.59996H10.4037C10.6809 6.59996 10.9056 6.37521 10.9056 6.09804C10.9056 5.82086 10.6809 5.59612 10.4037 5.59612H7.80545C7.52828 5.59612 7.30353 5.82086 7.30353 6.09804C7.30353 6.37521 7.52828 6.59996 7.80545 6.59996Z" fill="#2B2D42"/>
<path d="M4.19437 6.59996H5.8217C6.24443 6.59996 6.58797 6.25643 6.58797 5.8337V4.20636C6.58797 3.78363 6.24443 3.44009 5.8217 3.44009H4.19437C3.77164 3.44009 3.4281 3.78363 3.4281 4.20636V5.8337C3.4281 6.25643 3.77164 6.59996 4.19437 6.59996ZM4.43138 4.44338H5.58413V5.59612H4.43138V4.44338Z" fill="#2B2D42"/>
</svg>
