<svg width="16" height="18" viewBox="0 0 16 18" fill="none" xmlns="http://www.w3.org/2000/svg">
<path d="M15.0013 12.3115C15.0353 10.6136 15.0353 8.91572 15.0013 7.21785C15.0013 6.81037 15.0353 6.30101 14.6957 5.96143C13.677 4.8748 12.5564 3.85607 11.4698 2.76944C11.0962 2.39591 10.7567 2.02238 10.3831 1.64884C10.0096 1.27531 9.73794 1.00365 9.19462 1.00365C8.78713 1.00365 8.37965 1.00365 7.97216 1.00365C6.78365 1.00365 5.59514 1.00365 4.40663 1.00365C3.72749 1.00365 2.91251 0.901782 2.23336 1.03761C1.41838 1.2074 0.773193 1.98842 0.773193 2.8034V13.9754V15.5374C0.807151 16.658 1.65608 17.3711 2.74272 17.3711H8.51548H11.8093C12.3187 17.3711 12.862 17.4051 13.4053 17.3372C14.2543 17.2353 14.9334 16.5222 15.0013 15.6393C15.0013 15.4695 15.0013 15.2658 15.0013 15.096C15.0013 14.2131 15.0013 13.2623 15.0013 12.3115ZM10.0436 3.34671C10.0436 3.14297 10.0436 2.93922 10.0436 2.73548C11.1302 3.82212 12.1829 4.8748 13.2695 5.96143C12.4545 5.96143 11.6396 5.96143 10.8246 5.96143C10.6548 5.96143 10.451 5.99539 10.3152 5.89352C10.0775 5.75769 10.0436 5.55394 10.0436 5.31624C10.0436 4.67105 10.0436 3.9919 10.0436 3.34671ZM13.9826 15.3676C13.9826 15.877 13.7789 16.3524 13.2016 16.3863C12.3527 16.4203 11.5037 16.3863 10.6548 16.3863C8.00611 16.3863 5.3914 16.4203 2.74272 16.3863C1.75796 16.3863 1.85983 15.4355 1.85983 14.7224C1.85983 13.3981 1.85983 12.0738 1.85983 10.7494C1.85983 8.16866 1.89379 5.55394 1.85983 2.97318C1.85983 2.93922 1.85983 2.87131 1.85983 2.83735C1.89379 2.22612 2.36919 2.05633 2.87855 2.05633H4.33872H8.48152H9.02484V5.3502C9.02484 5.72373 9.09275 6.0633 9.29649 6.36892C9.60211 6.81037 10.0775 7.04807 10.5869 7.04807H12.5564H13.9826V13.9754V15.3676Z" fill="#2B2D42"/>
<path d="M12.3527 10.274C11.9452 10.7155 11.5037 11.1569 11.0962 11.5984C10.9944 11.4965 10.8585 11.3607 10.7567 11.2588C10.5529 11.055 10.2133 11.055 10.0436 11.2588C9.87377 11.4625 9.83982 11.7682 10.0436 11.9719L10.7567 12.685C10.9604 12.8887 11.3 12.8887 11.4698 12.685C11.9452 12.1756 12.4206 11.7002 12.896 11.1909L13.0997 10.9871C13.2695 10.7834 13.3035 10.4438 13.0997 10.274C12.862 10.1042 12.5224 10.0703 12.3527 10.274Z" fill="#2B2D42"/>
<path d="M8.20987 8.37242C6.7497 8.37242 5.25558 8.37242 3.79541 8.37242C3.59167 8.37242 3.38792 8.37242 3.18418 8.37242C2.53899 8.37242 2.53899 9.39114 3.18418 9.39114H7.59864H8.20987C8.88902 9.39114 8.88902 8.37242 8.20987 8.37242Z" fill="#2B2D42"/>
<path d="M8.20987 11.3267C6.7497 11.3267 5.25558 11.3267 3.79541 11.3267C3.59167 11.3267 3.38792 11.3267 3.18418 11.3267C2.53899 11.3267 2.53899 12.3454 3.18418 12.3454H7.59864H8.20987C8.88902 12.3454 8.88902 11.3267 8.20987 11.3267Z" fill="#2B2D42"/>
<path d="M8.20987 14.315C6.7497 14.315 5.25558 14.315 3.79541 14.315C3.59167 14.315 3.38792 14.315 3.18418 14.315C2.53899 14.315 2.53899 15.3337 3.18418 15.3337H7.59864H8.20987C8.88902 15.3337 8.88902 14.315 8.20987 14.315Z" fill="#2B2D42"/>
</svg>
