<svg width="17" height="19" viewBox="0 0 17 19" fill="none" xmlns="http://www.w3.org/2000/svg">
<path d="M11.2062 12.5896C13.1727 9.50382 12.9255 9.8888 12.9822 9.80834C13.6982 8.79851 14.0766 7.60998 14.0766 6.37117C14.0766 3.08592 11.4106 0.379608 8.12109 0.379608C4.84227 0.379608 2.16562 3.08058 2.16562 6.37117C2.16562 7.60919 2.55197 8.82883 3.29139 9.85227L5.03587 12.5896C3.17073 12.8762 0 13.7304 0 15.6112C0 16.2968 0.44749 17.2738 2.57933 18.0352C4.06791 18.5668 6.03599 18.8596 8.12109 18.8596C12.0201 18.8596 16.2422 17.7598 16.2422 15.6112C16.2422 13.7301 13.0752 12.8768 11.2062 12.5896ZM4.19586 9.25669C4.18991 9.24737 4.1837 9.23828 4.1772 9.22933C3.56191 8.38286 3.24844 7.37967 3.24844 6.37117C3.24844 3.66349 5.42872 1.46242 8.12109 1.46242C10.8079 1.46242 12.9937 3.66446 12.9937 6.37117C12.9937 7.38129 12.6862 8.35044 12.1042 9.17461C12.052 9.2434 12.3241 8.82067 8.12109 15.4159L4.19586 9.25669ZM8.12109 17.7768C3.86225 17.7768 1.08281 16.525 1.08281 15.6112C1.08281 14.997 2.51097 13.9871 5.67567 13.5935L7.66451 16.7143C7.76391 16.8703 7.93608 16.9647 8.12106 16.9647C8.30604 16.9647 8.47824 16.8702 8.57761 16.7143L10.5664 13.5935C13.7312 13.9871 15.1594 14.997 15.1594 15.6112C15.1594 16.5172 12.405 17.7768 8.12109 17.7768Z" fill="#2B2D42"/>
<path d="M8.12109 3.66414C6.62844 3.66414 5.41406 4.87851 5.41406 6.37117C5.41406 7.86383 6.62844 9.0782 8.12109 9.0782C9.61375 9.0782 10.8281 7.86383 10.8281 6.37117C10.8281 4.87851 9.61375 3.66414 8.12109 3.66414ZM8.12109 7.99539C7.2255 7.99539 6.49687 7.26676 6.49687 6.37117C6.49687 5.47558 7.2255 4.74695 8.12109 4.74695C9.01669 4.74695 9.74531 5.47558 9.74531 6.37117C9.74531 7.26676 9.01669 7.99539 8.12109 7.99539Z" fill="#2B2D42"/>
</svg>
