<svg width="14" height="13" viewBox="0 0 14 13" fill="none" xmlns="http://www.w3.org/2000/svg">
<path d="M0 1.0625C0 0.84375 0.191406 0.625 0.4375 0.625C0.65625 0.625 0.875 0.84375 0.875 1.0625V12.4375C0.875 12.6836 0.65625 12.875 0.4375 12.875C0.191406 12.875 0 12.6836 0 12.4375V1.0625ZM1.75 1.0625C1.75 0.84375 1.94141 0.625 2.1875 0.625C2.40625 0.625 2.625 0.84375 2.625 1.0625V12.4375C2.625 12.6836 2.40625 12.875 2.1875 12.875C1.94141 12.875 1.75 12.6836 1.75 12.4375V1.0625ZM4.375 1.0625V12.4375C4.375 12.6836 4.15625 12.875 3.9375 12.875C3.69141 12.875 3.5 12.6836 3.5 12.4375V1.0625C3.5 0.84375 3.69141 0.625 3.9375 0.625C4.15625 0.625 4.375 0.84375 4.375 1.0625ZM6.125 1.0625C6.125 0.84375 6.31641 0.625 6.5625 0.625C6.78125 0.625 7 0.84375 7 1.0625V12.4375C7 12.6836 6.78125 12.875 6.5625 12.875C6.31641 12.875 6.125 12.6836 6.125 12.4375V1.0625ZM8.75 1.0625V12.4375C8.75 12.6836 8.53125 12.875 8.3125 12.875C8.06641 12.875 7.875 12.6836 7.875 12.4375V1.0625C7.875 0.84375 8.06641 0.625 8.3125 0.625C8.53125 0.625 8.75 0.84375 8.75 1.0625ZM10.5 1.0625C10.5 0.84375 10.6914 0.625 10.9375 0.625C11.1562 0.625 11.375 0.84375 11.375 1.0625V12.4375C11.375 12.6836 11.1562 12.875 10.9375 12.875C10.6914 12.875 10.5 12.6836 10.5 12.4375V1.0625ZM14 1.0625V12.4375C14 12.6836 13.7812 12.875 13.5625 12.875C13.3164 12.875 13.125 12.6836 13.125 12.4375V1.0625C13.125 0.84375 13.3164 0.625 13.5625 0.625C13.7812 0.625 14 0.84375 14 1.0625Z" fill="#42b3f5"></path>
</svg>