<svg width="22" height="17" viewBox="0 0 22 17" fill="none" xmlns="http://www.w3.org/2000/svg">
<path d="M21.6335 7.0521C21.496 6.79304 20.1388 6.13036 20.1388 6.13036C20.3749 5.99254 20.5362 5.96405 20.5362 5.39411C20.5362 4.77237 20.5335 4.56512 20.1668 4.56512H18.9229C18.9178 4.55269 18.9123 4.53973 18.9073 4.52678C18.1043 2.54446 17.9966 2.04343 16.7989 1.36884C15.1925 0.46576 12.1807 0.420166 11.0001 0.420166C9.81938 0.420166 6.80765 0.46576 5.20256 1.36884C4.00355 2.0424 4.03334 2.38902 3.09423 4.52678C3.09423 4.53248 3.0846 4.54751 3.0759 4.56512H1.8306C1.46668 4.56512 1.46393 4.77237 1.46393 5.39411C1.46393 5.96405 1.62526 5.99254 1.8613 6.13036C1.8613 6.13036 0.550004 6.84485 0.366669 7.0521C0.183335 7.25934 0 8.71008 0 11.1971C0 13.684 0.183335 16.171 0.183335 16.171H0.730588C0.730588 16.8964 0.825006 17 1.10001 17H4.76668C5.04168 17 5.13335 16.8964 5.13335 16.171H16.8668C16.8668 16.8964 16.9584 17 17.2334 17H20.9918C21.1751 17 21.2668 16.8446 21.2668 16.171H21.8168C21.8168 16.171 22.0001 13.6322 22.0001 11.1971C22.0001 8.76189 21.771 7.31116 21.6335 7.0521ZM5.00777 9.38052C4.17304 9.48368 3.334 9.53663 2.49427 9.53907C1.55834 9.53907 1.52626 9.60694 1.46026 8.94634C1.43543 8.64397 1.44328 8.33931 1.48364 8.03911L1.51251 7.88109H1.65001C2.20002 7.88109 2.71656 7.90751 3.6919 8.23237C4.18799 8.40066 4.65457 8.66464 5.07102 9.01266C5.27085 9.17639 5.31669 9.33182 5.31669 9.33182L5.00777 9.38052ZM16.336 13.111L16.1334 13.684H5.86669C5.86669 13.684 5.88456 13.6524 5.63752 13.1048C5.45419 12.6996 5.68335 12.4405 6.0459 12.2934C6.74807 12.0074 8.80004 11.1971 11.0001 11.1971C13.2001 11.1971 15.2928 11.8955 15.973 12.2934C16.2251 12.4405 16.5381 12.5442 16.336 13.1141V13.111ZM4.55676 6.0371C4.40872 6.04674 4.26036 6.04798 4.11218 6.04073C4.2318 5.80032 4.29826 5.53245 4.41514 5.25267C4.78181 4.37186 5.20118 3.375 5.94781 2.95481C7.02674 2.34757 9.26296 2.074 11.0001 2.074C12.7372 2.074 14.9734 2.3455 16.0523 2.95481C16.7989 3.375 17.2165 4.37238 17.585 5.25267C17.7028 5.53504 17.7683 5.80498 17.8911 6.04694C17.7995 6.05264 17.6941 6.04694 17.4424 6.0371H4.55676ZM20.494 8.94427C20.396 9.59088 20.4876 9.53907 19.5059 9.53907C18.6661 9.53663 17.8271 9.48368 16.9923 9.38052C16.8617 9.3541 16.8246 9.10489 16.9291 9.01266C17.3435 8.66075 17.8107 8.39641 18.3082 8.23237C19.2836 7.90751 19.8327 7.86399 20.3749 7.88575C20.4113 7.8873 20.4459 7.90409 20.4721 7.93274C20.4982 7.96145 20.5141 8.0001 20.5165 8.04119C20.5424 8.34278 20.5349 8.64687 20.494 8.94634V8.94427Z" fill="#42B3F5"/>
</svg>
