<svg width="17" height="20" viewBox="0 0 17 20" fill="none" xmlns="http://www.w3.org/2000/svg">
<path d="M3.97517 5.06445H9.86339C10.18 5.06445 10.4367 4.80772 10.4367 4.49111C10.4367 4.1745 10.18 3.91777 9.86339 3.91777H3.97517C3.65855 3.91777 3.40182 4.1745 3.40182 4.49111C3.40182 4.80772 3.65855 5.06445 3.97517 5.06445Z" fill="#2B2D42"/>
<path d="M3.97517 8.18152H6.6221C6.93871 8.18152 7.19544 7.92479 7.19544 7.60818C7.19544 7.29157 6.93871 7.03484 6.6221 7.03484H3.97517C3.65855 7.03484 3.40182 7.29157 3.40182 7.60818C3.40182 7.92479 3.65855 8.18152 3.97517 8.18152Z" fill="#2B2D42"/>
<path d="M13.2378 0.379608H2.77752C1.24606 0.379608 0 1.62567 0 3.15713V14.7832C0 16.3147 1.24606 17.5608 2.77752 17.5608H5.68246C5.99907 17.5608 6.2558 17.304 6.2558 16.9874C6.2558 16.6708 5.99907 16.4141 5.68246 16.4141H2.77752C1.87865 16.4141 1.14668 15.6827 1.14668 14.7832V3.15713C1.14668 2.25762 1.87801 1.52629 2.77752 1.52629H13.2378C14.1367 1.52629 14.8687 2.25762 14.8687 3.15713V14.7832C14.8687 15.4884 14.4189 16.1096 13.7481 16.3281C13.4468 16.4262 13.2831 16.7498 13.3812 17.0511C13.4793 17.3524 13.8029 17.5155 14.1042 17.4181C15.2477 17.0454 16.016 15.986 16.016 14.7832V3.15713C16.0154 1.62567 14.7693 0.379608 13.2378 0.379608Z" fill="#2B2D42"/>
<path d="M9.8048 10.3029C8.11663 10.3029 6.74188 11.6764 6.74188 13.3652C6.74188 14.2169 7.0929 14.9871 7.65604 15.5426V18.7903C7.65604 19.0011 7.77199 19.1948 7.95737 19.2948C8.14339 19.3955 8.3689 19.3853 8.54473 19.2693L9.80544 18.4424L11.0662 19.2693C11.1611 19.3318 11.2706 19.363 11.3809 19.363C11.4739 19.363 11.5681 19.34 11.6535 19.2942C11.8389 19.1941 11.9548 19.0005 11.9548 18.7896V15.5413C12.5173 14.9858 12.8684 14.2156 12.8684 13.3639C12.8671 11.6764 11.4936 10.3029 9.8048 10.3029ZM9.8048 11.4496C10.8604 11.4496 11.7198 12.3089 11.7198 13.3652C11.7198 14.4214 10.8604 15.2808 9.8048 15.2808C8.74858 15.2808 7.8892 14.4214 7.8892 13.3652C7.8892 12.3089 8.74858 11.4496 9.8048 11.4496ZM10.8069 17.7283L10.1201 17.2773C9.92839 17.1524 9.68185 17.1524 9.49074 17.2773L8.804 17.7283V16.2453C9.11934 16.3555 9.45315 16.4275 9.80544 16.4275C10.1584 16.4275 10.4915 16.3555 10.8069 16.2453V17.7283Z" fill="#2B2D42"/>
</svg>
