<svg width="17" height="22" viewBox="0 0 17 22" fill="none" xmlns="http://www.w3.org/2000/svg">
<path d="M13.1369 10.176C11.145 10.176 9.52423 11.7968 9.52423 13.7887C9.52423 15.7805 11.145 17.4013 13.1369 17.4013C15.1287 17.4013 16.7495 15.7805 16.7495 13.7887C16.7495 11.7968 15.1287 10.176 13.1369 10.176ZM14.6685 13.209C13.6184 14.7845 13.9162 14.3378 13.3549 15.1795C13.1532 15.4819 12.7451 15.5621 12.4439 15.3614L11.4586 14.7046C11.1569 14.5034 11.0756 14.0957 11.2768 13.7936C11.4779 13.4919 11.8856 13.4106 12.1877 13.6117L12.6262 13.904C13.6738 12.3329 13.6174 12.3764 13.7937 12.2759C14.392 11.9298 15.053 12.6316 14.6685 13.209ZM10.1811 17.7273V21.3424C10.1811 21.8456 10.7262 22.1628 11.1639 21.9126L13.1369 20.7853L15.1099 21.9126C15.5458 22.1624 16.0927 21.847 16.0927 21.3424V17.7273C14.3427 19.0439 11.9336 19.0458 10.1811 17.7273ZM14.4506 9.04051V2.40681C14.4506 1.62024 13.8105 0.980225 13.024 0.980225H1.42658C0.640012 0.980225 0 1.62024 0 2.40681V17.6168C0 18.4034 0.640012 19.0434 1.42658 19.0434H8.86738C8.86738 16.2168 8.86299 16.3918 8.87765 16.2617C6.67878 12.4919 10.1801 7.85458 14.4506 9.04051ZM3.94106 4.26444H9.52423C9.88713 4.26444 10.1811 4.55838 10.1811 4.92128C10.1811 5.28419 9.88713 5.57813 9.52423 5.57813H3.94106C3.57815 5.57813 3.28422 5.28419 3.28422 4.92128C3.28422 4.55838 3.57815 4.26444 3.94106 4.26444ZM7.22528 10.8329H3.94106C3.57815 10.8329 3.28422 10.5389 3.28422 10.176C3.28422 9.81312 3.57815 9.51919 3.94106 9.51919H7.22528C7.58818 9.51919 7.88212 9.81312 7.88212 10.176C7.88212 10.5389 7.58818 10.8329 7.22528 10.8329ZM3.94106 8.2055C3.57815 8.2055 3.28422 7.91156 3.28422 7.54866C3.28422 7.18575 3.57815 6.89181 3.94106 6.89181H9.52423C9.88713 6.89181 10.1811 7.18575 10.1811 7.54866C10.1811 7.91156 9.88713 8.2055 9.52423 8.2055H3.94106Z" fill="#42B3F5"/>
</svg>
