<svg width="19" height="17" viewBox="0 0 19 17" fill="none" xmlns="http://www.w3.org/2000/svg">
<path d="M9.52025 6.60739C11.2966 6.60739 12.7419 5.16209 12.7419 3.38575C12.7419 1.6094 11.2966 0.164108 9.52025 0.164108C7.74391 0.164108 6.29861 1.6094 6.29861 3.38575C6.29861 5.16209 7.74391 6.60739 9.52025 6.60739ZM9.52025 1.27502C10.6841 1.27502 11.631 2.22188 11.631 3.38575C11.631 4.54961 10.6841 5.49648 9.52025 5.49648C8.35639 5.49648 7.40953 4.54961 7.40953 3.38575C7.40953 2.22188 8.35639 1.27502 9.52025 1.27502Z" fill="#2B2D42"/>
<path d="M16.0376 6.6074C17.1607 6.6074 18.0743 5.69386 18.0743 4.57073C18.0743 3.4476 17.1607 2.53406 16.0376 2.53406C14.9145 2.53406 14.0009 3.4476 14.0009 4.57073C14.0009 5.69386 14.9145 6.6074 16.0376 6.6074ZM16.0376 3.64497C16.5482 3.64497 16.9633 4.06008 16.9633 4.57073C16.9633 5.08138 16.5482 5.49649 16.0376 5.49649C15.5269 5.49649 15.1118 5.08138 15.1118 4.57073C15.1118 4.06008 15.5269 3.64497 16.0376 3.64497Z" fill="#2B2D42"/>
<path d="M16.4856 7.86641H15.6265C14.6141 7.86641 13.7402 8.46445 13.3421 9.32355C12.5223 8.42853 11.3444 7.86641 10.0379 7.86641H9.00255C7.69612 7.86641 6.51819 8.42853 5.69833 9.32355C5.30026 8.46445 4.42634 7.86641 3.41393 7.86641H2.55483C1.16841 7.86641 0.0404663 8.98769 0.0404663 10.3656V14.4097C0.0404663 15.0081 0.528897 15.4947 1.12953 15.4947H4.52632C4.58335 16.1575 5.14066 16.6796 5.81794 16.6796H13.2225C13.8998 16.6796 14.4571 16.1575 14.5141 15.4947H17.8721C18.4942 15.4947 19 14.9907 19 14.3712V10.3656C19 8.98769 17.8721 7.86641 16.4856 7.86641ZM1.15138 10.3656C1.15138 9.60017 1.78089 8.97732 2.55483 8.97732H3.41393C4.18787 8.97732 4.81738 9.60017 4.81738 10.3656V10.7459C4.44375 11.7183 4.52114 12.3012 4.52114 14.3838H1.15138V10.3656ZM13.4084 15.3828C13.4084 15.4854 13.3251 15.5687 13.2225 15.5687H5.81794C5.71537 15.5687 5.63205 15.4854 5.63205 15.3828V12.3478C5.63205 10.4893 7.144 8.97732 9.00255 8.97732H10.0379C11.8965 8.97732 13.4084 10.4893 13.4084 12.3478V15.3828ZM17.8891 14.3712C17.8891 14.3904 18.0961 14.3838 14.5193 14.3838C14.5193 12.286 14.596 11.7168 14.2231 10.7459V10.3656C14.2231 9.60017 14.8526 8.97732 15.6265 8.97732H16.4856C17.2596 8.97732 17.8891 9.60017 17.8891 10.3656V14.3712Z" fill="#2B2D42"/>
<path d="M3.00292 6.6074C4.12605 6.6074 5.03959 5.69386 5.03959 4.57073C5.03959 3.4476 4.12605 2.53406 3.00292 2.53406C1.87979 2.53406 0.966248 3.4476 0.966248 4.57073C0.966248 5.69386 1.87979 6.6074 3.00292 6.6074ZM3.00292 3.64497C3.51357 3.64497 3.92868 4.06008 3.92868 4.57073C3.92868 5.08138 3.51357 5.49649 3.00292 5.49649C2.49227 5.49649 2.07716 5.08138 2.07716 4.57073C2.07716 4.06008 2.49227 3.64497 3.00292 3.64497Z" fill="#2B2D42"/>
</svg>
