<svg width="17" height="17" viewBox="0 0 17 17" fill="none" xmlns="http://www.w3.org/2000/svg">
<path fill-rule="evenodd" clip-rule="evenodd" d="M2.125 0H5.43056C6.60416 0 7.55556 0.951395 7.55556 2.125V14.875C7.55556 16.0486 6.60416 17 5.43056 17H2.125C0.951395 17 0 16.0486 0 14.875V2.125C0 0.951395 0.951395 0 2.125 0ZM5.43056 15.5833C5.81963 15.5782 6.1338 15.2641 6.13889 14.875V2.125C6.1338 1.73592 5.81963 1.42175 5.43056 1.41667H2.125C1.73592 1.42175 1.42175 1.73592 1.41667 2.125V14.875C1.42175 15.2641 1.73592 15.5782 2.125 15.5833H5.43056Z" fill="black"/>
<path fill-rule="evenodd" clip-rule="evenodd" d="M11.5694 9.44444H14.875C16.0486 9.44444 17 10.3958 17 11.5694V14.875C17 16.0486 16.0486 17 14.875 17H11.5694C10.3958 17 9.44444 16.0486 9.44444 14.875V11.5694C9.44444 10.3958 10.3958 9.44444 11.5694 9.44444ZM14.875 15.5833C15.2641 15.5782 15.5782 15.2641 15.5833 14.875V11.5694C15.5782 11.1804 15.2641 10.8662 14.875 10.8611H11.5694C11.1804 10.8662 10.8662 11.1804 10.8611 11.5694V14.875C10.8662 15.2641 11.1804 15.5782 11.5694 15.5833H14.875Z" fill="black"/>
<path fill-rule="evenodd" clip-rule="evenodd" d="M11.5694 0H14.875C16.0486 0 17 0.951395 17 2.125V5.43056C17 6.60416 16.0486 7.55556 14.875 7.55556H11.5694C10.3958 7.55556 9.44444 6.60416 9.44444 5.43056V2.125C9.44444 0.951395 10.3958 0 11.5694 0ZM14.875 6.13889C15.2641 6.1338 15.5782 5.81963 15.5833 5.43056V2.125C15.5782 1.73592 15.2641 1.42175 14.875 1.41667H11.5694C11.1804 1.42175 10.8662 1.73592 10.8611 2.125V5.43056C10.8662 5.81963 11.1804 6.1338 11.5694 6.13889H14.875Z" fill="black"/>
</svg>
