<svg width="17" height="21" viewBox="0 0 17 21" fill="none" xmlns="http://www.w3.org/2000/svg">
<path d="M11.9161 6.15H6.95361C6.57404 6.15 6.26634 5.84555 6.26634 5.47C6.26634 5.09445 6.57404 4.79 6.95361 4.79H11.9161C12.2956 4.79 12.6033 5.09445 12.6033 5.47C12.6033 5.84555 12.2956 6.15 11.9161 6.15Z" fill="black"/>
<path d="M6.98393 10.66H10.5213C10.9009 10.66 11.2086 10.9644 11.2086 11.34C11.2086 11.7156 10.9009 12.02 10.5213 12.02H6.98393C6.60436 12.02 6.29666 11.7156 6.29666 11.34C6.29666 10.9644 6.60436 10.66 6.98393 10.66Z" fill="black"/>
<path d="M13.331 7.72H6.95361C6.68629 7.68799 6.42423 7.8111 6.28035 8.03629C6.13646 8.26148 6.13646 8.54852 6.28035 8.77371C6.42423 8.9989 6.68629 9.12201 6.95361 9.09H13.331C13.6812 9.04806 13.9446 8.75401 13.9446 8.405C13.9446 8.05599 13.6812 7.76194 13.331 7.72Z" fill="black"/>
<path fill-rule="evenodd" clip-rule="evenodd" d="M8.07546 0H12.199C14.8504 0 16.9998 2.12665 16.9998 4.75V12.07C17.0184 14.0597 15.7791 15.8491 13.897 16.55C13.7033 18.6135 11.9488 20.1889 9.85427 20.18H4.80085C2.14947 20.18 0.000107141 18.0534 0.000107141 15.43V7.21C-0.0147454 5.1755 1.51627 3.45409 3.55771 3.21C4.21999 1.29794 6.03267 0.00997779 8.07546 0ZM4.76042 18.64H9.81384C10.9436 18.6408 11.9355 17.8966 12.2395 16.82H8.07546C5.42409 16.82 3.27472 14.6934 3.27472 12.07V4.79C2.20982 5.10344 1.47866 6.07073 1.4757 7.17V15.39C1.4757 17.1849 2.94632 18.64 4.76042 18.64ZM15.4838 12.07C15.4838 13.8649 14.0132 15.32 12.1991 15.32H8.07546C6.26367 15.3145 4.79629 13.8626 4.79074 12.07V4.75C4.79629 2.95735 6.26367 1.50549 8.07546 1.5H12.1991C14.0132 1.5 15.4838 2.95507 15.4838 4.75V12.07Z" fill="black"/>
</svg>
