<svg width="16" height="19" viewBox="0 0 16 19" fill="none" xmlns="http://www.w3.org/2000/svg">
<path d="M2.33436 0.379608H11.2156C12.2013 0.379608 13.0031 1.13663 13.0031 2.06711V2.62961H14.2316C14.9052 2.62961 15.4531 3.17755 15.4531 3.85111V17.1581C15.4531 17.8317 14.9052 18.3796 14.2316 18.3796H4.21838C3.54482 18.3796 2.99688 17.8317 2.99688 17.1581V16.1296H2.33436C1.34875 16.1296 0.546875 15.3726 0.546875 14.4421V2.06711C0.546875 1.13663 1.34875 0.379608 2.33436 0.379608ZM4.12188 17.1581C4.12188 17.2113 4.16516 17.2546 4.21838 17.2546H14.2316C14.2848 17.2546 14.3281 17.2113 14.3281 17.1581V3.85111C14.3281 3.79789 14.2848 3.75461 14.2316 3.75461H4.21838C4.16516 3.75461 4.12188 3.79789 4.12188 3.85111V17.1581ZM1.67188 14.4421C1.67188 14.7523 1.96909 15.0046 2.33436 15.0046H2.99688V3.85111C2.99688 3.17755 3.54482 2.62961 4.21838 2.62961H11.8781V2.06711C11.8781 1.75696 11.5809 1.50461 11.2156 1.50461H2.33436C1.96909 1.50461 1.67188 1.75696 1.67188 2.06711V14.4421Z" fill="#2B2D42"/>
<path d="M6.45312 7.97336H11.7969C12.1075 7.97336 12.3594 7.7215 12.3594 7.41086C12.3594 7.10022 12.1075 6.84836 11.7969 6.84836H6.45312C6.14248 6.84836 5.89062 7.10022 5.89062 7.41086C5.89062 7.7215 6.14248 7.97336 6.45312 7.97336Z" fill="#2B2D42"/>
<path d="M6.45312 10.2234H11.7969C12.1075 10.2234 12.3594 9.9715 12.3594 9.66086C12.3594 9.35022 12.1075 9.09836 11.7969 9.09836H6.45312C6.14248 9.09836 5.89062 9.35022 5.89062 9.66086C5.89062 9.9715 6.14248 10.2234 6.45312 10.2234Z" fill="#2B2D42"/>
<path d="M6.45312 12.4734H11.7969C12.1075 12.4734 12.3594 12.2215 12.3594 11.9109C12.3594 11.6002 12.1075 11.3484 11.7969 11.3484H6.45312C6.14248 11.3484 5.89062 11.6002 5.89062 11.9109C5.89062 12.2215 6.14248 12.4734 6.45312 12.4734Z" fill="#2B2D42"/>
</svg>
