<?xml version="1.0" encoding="utf-8"?>
<!-- Generator: Adobe Illustrator 19.0.0, SVG Export Plug-In . SVG Version: 6.00 Build 0)  -->
<svg version="1.1" id="Layer_1" xmlns="http://www.w3.org/2000/svg" xmlns:xlink="http://www.w3.org/1999/xlink" x="0px" y="0px"
	 viewBox="0 0 70.9 70.9" style="enable-background:new 0 0 70.9 70.9;" xml:space="preserve">
<style type="text/css">
	.st0{fill:#468DCB;}
</style>
<path class="st0" d="M55.8,36v-6.5h2.3c1.1,0,2-0.9,2-2c0-3.7-1.6-7.1-4.2-9.4v-3.3c0-6.9-5.6-12.6-12.6-12.6h-17
	c-3.5,0-6.7,1.4-9,4.1c-2.4,2.7-3.6,6.4-3.6,10.7v1.2c-2.6,2.3-4.2,5.7-4.2,9.4c0,1.1,0.9,2,2,2h2.3V36c0,7,3.5,13.3,8.8,17.1H18
	c-4,0-7.3,3.3-7.3,7.3v7.4c0,1.1,0.9,2,2,2h44.1c1.1,0,2-0.9,2-2v-7.4c0-4-3.3-7.3-7.3-7.3H47C52.3,49.3,55.8,43,55.8,36z M26.2,6.2
	h17c4.8,0,8.6,3.9,8.6,8.6v0.9c-1.4-0.5-2.8-0.8-4.4-0.8H22c-1.5,0-3,0.3-4.3,0.8C18.1,9.9,21.4,6.2,26.2,6.2z M22,18.9h25.5
	c4.1,0,7.5,2.8,8.4,6.6H13.6C14.5,21.7,17.9,18.9,22,18.9z M14.7,60.4c0-1.8,1.5-3.3,3.3-3.3h14.8v8.8H14.7V60.4z M54.8,60.4v5.4
	H36.7v-8.8h14.8C53.3,57.1,54.8,58.6,54.8,60.4z M17.6,36v-6.5h34.2V36c0,9.4-7.7,17.1-17.1,17.1S17.6,45.4,17.6,36z"/>
<path id="XMLID_3_" class="st0" d="M28.4,35.9c0.5,0,1-0.2,1.4-0.6c0.4-0.4,0.6-0.9,0.6-1.4c0-0.5-0.2-1-0.6-1.4
	c-0.4-0.4-0.9-0.6-1.4-0.6c-0.5,0-1,0.2-1.4,0.6c-0.4,0.4-0.6,0.9-0.6,1.4c0,0.5,0.2,1,0.6,1.4C27.3,35.6,27.8,35.9,28.4,35.9z"/>
<path id="XMLID_2_" class="st0" d="M41.1,35.9c0.5,0,1-0.2,1.4-0.6c0.4-0.4,0.6-0.9,0.6-1.4c0-0.5-0.2-1-0.6-1.4
	c-0.4-0.4-0.9-0.6-1.4-0.6c-0.5,0-1,0.2-1.4,0.6c-0.4,0.4-0.6,0.9-0.6,1.4c0,0.5,0.2,1,0.6,1.4C40.1,35.6,40.6,35.9,41.1,35.9z"/>
<path id="XMLID_1_" class="st0" d="M43.1,40.7c-0.9-0.5-2.2-0.2-2.7,0.7c-1.2,2-3.3,3.3-5.6,3.3c-2.3,0-4.5-1.2-5.6-3.3
	c-0.5-0.9-1.8-1.3-2.7-0.7c-0.9,0.5-1.3,1.8-0.7,2.7c1.9,3.2,5.3,5.2,9.1,5.2c3.7,0,7.2-2,9.1-5.2C44.3,42.4,44,41.2,43.1,40.7z"/>
</svg>
