<?xml version="1.0" encoding="utf-8"?>
<!-- Generator: Adobe Illustrator 19.0.0, SVG Export Plug-In . SVG Version: 6.00 Build 0)  -->
<svg version="1.1" id="Layer_1" xmlns="http://www.w3.org/2000/svg" xmlns:xlink="http://www.w3.org/1999/xlink" x="0px" y="0px"
	 viewBox="0 0 25 25" style="enable-background:new 0 0 25 25;" xml:space="preserve">
<style type="text/css">
	.st0{fill:#468DCB;}
</style>
<g id="XMLID_12_">
	<path id="XMLID_10_" class="st0" d="M3,16.4c0.3-0.5,0.7-0.9,1.2-1.1c0.2-0.1,0.5-0.1,0.7-0.1c0.9,0,1.8,0.6,2.1,1.5
		c0.1,0.2,0.1,0.3,0.1,0.5h5v0.5c0,0.1,0.1,0.2,0.2,0.2H16c0.1,0,0.2-0.1,0.2-0.2v-0.5h0.1c0.3,0,0.5-0.2,0.5-0.5v-11
		c0-0.3-0.2-0.5-0.5-0.5H1.4c-0.3,0-0.5,0.2-0.5,0.5v11c0,0.3,0.2,0.5,0.5,0.5h1.4C2.8,16.9,2.9,16.6,3,16.4z"/>
	<ellipse id="XMLID_9_" class="st0" cx="20.4" cy="9.7" rx="1.1" ry="1.1"/>
	<path id="XMLID_21_" class="st0" d="M19.4,15.6c-0.7,0.2-1.2,0.9-1.3,1.6c0,0.3,0,0.5,0.1,0.8c0.3,1,1.4,1.5,2.4,1.2
		c0.8-0.3,1.3-1.1,1.3-1.9c0-0.1,0-0.3-0.1-0.4C21.4,15.7,20.4,15.2,19.4,15.6z M20.2,18c-0.4,0.1-0.8-0.1-0.9-0.5
		c0-0.1,0-0.3,0-0.4c0.1-0.2,0.2-0.4,0.5-0.5c0.4-0.1,0.8,0.1,0.9,0.5c0,0,0,0,0,0.1C20.8,17.5,20.6,17.9,20.2,18z"/>
	<path id="XMLID_18_" class="st0" d="M4.4,15.6c-0.7,0.2-1.2,0.9-1.3,1.6c0,0.3,0,0.5,0.1,0.8c0.3,1,1.4,1.5,2.4,1.2
		c0.8-0.3,1.3-1.1,1.3-1.9c0-0.1,0-0.3-0.1-0.4C6.4,15.7,5.4,15.2,4.4,15.6z M5.2,18c-0.4,0.1-0.8-0.1-0.9-0.5c0-0.1,0-0.3,0-0.4
		c0.1-0.2,0.2-0.4,0.5-0.5c0.4-0.1,0.8,0.1,0.9,0.5c0,0,0,0,0,0.1C5.8,17.5,5.6,17.9,5.2,18z"/>
	<path id="XMLID_4_" class="st0" d="M22.7,12.6c-0.1-0.2-0.3-0.3-0.5-0.3c-0.2,0.1-0.4,0.1-0.6,0.1c-0.4,0-0.7-0.1-1-0.3
		c0,0-0.1-0.1-0.1-0.1c-0.1-0.1-0.2-0.2-0.3-0.3c0,0,0-0.1-0.1-0.1c0,0,0,0,0,0h0c-0.1-0.2-0.3-0.3-0.5-0.2
		c-0.2,0.1-0.3,0.3-0.2,0.5v0c0,0,0.2,0.3,0.5,0.6c0.1,0,0.1,0.1,0.2,0.1c0.1,0.1,0.3,0.2,0.5,0.3c0.3,0.1,0.5,0.2,0.9,0.2
		c0,0,0,0,0,0c0.3,0,0.5,0,0.8-0.1c0.2,0,0.3-0.2,0.3-0.3C22.7,12.6,22.7,12.6,22.7,12.6z"/>
	<path id="XMLID_13_" class="st0" d="M24,15.1h-0.2c0-1,0-2.4,0-3.4c0-1.9-1.9-4.1-1.9-4.1c-0.2-0.2-0.5-0.4-0.8-0.4h-3.4
		c-0.3,0-0.5,0.2-0.5,0.5v8.9c0,0.3,0.2,0.5,0.5,0.5h0.1c0-0.3,0.1-0.5,0.2-0.8c0.3-0.5,0.7-0.9,1.2-1.1c0.2-0.1,0.3-0.1,0.5-0.1
		c0.1,0,0.1,0,0.2,0c0.2,0,0.4,0,0.6,0.1c0.7,0.2,1.2,0.7,1.5,1.4c0.1,0.2,0.1,0.3,0.1,0.5h1.2c0.3,0,0.5-0.2,0.5-0.5c0,0,0,0,0-0.1
		H24c0.1,0,0.2-0.1,0.2-0.2v-1C24.2,15.2,24.1,15.1,24,15.1z M18.3,13.6c-0.1,0-0.2-0.1-0.2-0.2v0c0-0.1,0.1-0.2,0.2-0.2H19h0.2
		c0.1,0,0.2,0.1,0.2,0.2v0c0,0.1-0.1,0.2-0.2,0.2H19H18.3z M22.8,12.9c-0.1,0.1-0.2,0.2-0.3,0.2c-0.3,0.1-0.6,0.1-0.8,0.1l0,0
		c-0.3,0-0.6-0.1-0.9-0.2c-0.3-0.1-0.5-0.3-0.7-0.4c0,0-0.1,0-0.1-0.1c-0.3-0.3-0.5-0.5-0.5-0.6c-0.1-0.2,0-0.5,0.2-0.6
		c0.1,0,0.1-0.1,0.2-0.1c0.2,0,0.3,0.1,0.4,0.3c0,0,0,0,0,0c0,0,0,0,0.1,0.1c0,0.1,0.1,0.2,0.2,0.3c0,0,0,0,0.1,0c0,0,0,0,0,0
		c0-0.5-0.3-1-0.7-1c-0.4,0-0.9,0.4-1,1.1c0,0.2,0,0.4,0,0.6h-0.5V7.8h2.7c0.1,0,0.3,0.1,0.4,0.2c0,0,1.8,2,1.8,3.7v1h-0.4
		C22.8,12.8,22.8,12.8,22.8,12.9z"/>
</g>
</svg>
