<svg width="18" height="18" viewBox="0 0 18 18" fill="none" xmlns="http://www.w3.org/2000/svg">
<path fill-rule="evenodd" clip-rule="evenodd" d="M9 18C8.3142 18 7.7364 17.3838 7.2222 16.4562C6.6792 15.4764 6.2526 14.145 5.9904 12.6H12.0096C11.7474 14.145 11.3208 15.4764 10.7778 16.4562C10.2636 17.3838 9.6858 18 9 18ZM0.75 12.6C1.8222 15.051 3.9552 16.9338 6.567 17.6664C6.4302 17.4744 6.2982 17.2644 6.1728 17.0376C5.5542 15.9216 5.064 14.3856 4.7778 12.6H0.75ZM17.25 12.6H13.2222C12.936 14.3856 12.4458 15.9216 11.8272 17.0376C11.7018 17.2644 11.5698 17.4744 11.433 17.6664C14.0448 16.9338 16.1778 15.051 17.25 12.6ZM17.676 6.6H13.3794C13.458 7.3686 13.5 8.1726 13.5 9C13.5 9.8274 13.458 10.6314 13.3794 11.4H17.676C17.8872 10.6356 18 9.831 18 9C18 8.169 17.8872 7.3644 17.676 6.6ZM0.323996 6.6C0.112796 7.3644 0 8.169 0 9C0 9.831 0.112796 10.6356 0.323996 11.4H4.6206C4.542 10.6314 4.5 9.8274 4.5 9C4.5 8.1726 4.542 7.3686 4.6206 6.6H0.323996ZM12.1746 11.4H5.8254C5.7432 10.6344 5.7 9.8298 5.7 9C5.7 8.1702 5.7432 7.3656 5.8254 6.6H12.1746C12.2568 7.3656 12.3 8.1702 12.3 9C12.3 9.8298 12.2568 10.6344 12.1746 11.4ZM11.433 0.3336C11.5698 0.5256 11.7018 0.7356 11.8272 0.9624C12.4458 2.0784 12.936 3.6144 13.2222 5.4H17.25C16.1778 2.949 14.0448 1.0662 11.433 0.3336ZM6.567 0.3336C3.9552 1.0662 1.8222 2.949 0.75 5.4H4.7778C5.064 3.6144 5.5542 2.0784 6.1728 0.9624C6.2982 0.7356 6.4302 0.5256 6.567 0.3336ZM12.0096 5.4H5.9904C6.2526 3.855 6.6792 2.5236 7.2222 1.5438C7.7364 0.6162 8.3142 0 9 0C9.6858 0 10.2636 0.6162 10.7778 1.5438C11.3208 2.5236 11.7474 3.855 12.0096 5.4Z" fill="#42B3F5"/>
</svg>
