<svg width="14" height="19" viewBox="0 0 14 19" fill="none" xmlns="http://www.w3.org/2000/svg">
<path fill-rule="evenodd" clip-rule="evenodd" d="M9.29625 1.87484H11.875C12.3725 1.87484 12.8494 2.07214 13.2006 2.42403C13.5525 2.77535 13.75 3.25242 13.75 3.74969V16.2483C13.75 16.7455 13.5525 17.2226 13.2006 17.5739C12.8494 17.9258 12.3725 18.1231 11.875 18.1231H1.875C1.3775 18.1231 0.900625 17.9258 0.549375 17.5739C0.1975 17.2226 0 16.7455 0 16.2483V3.74969C0 3.25242 0.1975 2.77535 0.549375 2.42403C0.900625 2.07214 1.3775 1.87484 1.875 1.87484H4.45375C4.73188 0.797241 5.71125 0 6.875 0C8.03875 0 9.01813 0.797241 9.29625 1.87484ZM4.45375 3.12436H1.875C1.70938 3.12436 1.55 3.19012 1.43313 3.3078C1.31563 3.42491 1.25 3.58355 1.25 3.74969V16.2483C1.25 16.4144 1.31563 16.573 1.43313 16.6901C1.55 16.8078 1.70938 16.8736 1.875 16.8736H11.875C12.0406 16.8736 12.2 16.8078 12.3169 16.6901C12.4344 16.573 12.5 16.4144 12.5 16.2483V3.74969C12.5 3.58355 12.4344 3.42491 12.3169 3.3078C12.2 3.19012 12.0406 3.12436 11.875 3.12436H9.29625C9.01813 4.20196 8.03875 4.9992 6.875 4.9992C5.71125 4.9992 4.73188 4.20196 4.45375 3.12436ZM7.9575 1.87484C7.74125 1.50103 7.3375 1.24951 6.875 1.24951C6.4125 1.24951 6.00875 1.50103 5.7925 1.87484C5.68625 2.05829 5.625 2.27173 5.625 2.4996C5.625 2.72747 5.68625 2.94091 5.7925 3.12436C6.00875 3.49817 6.4125 3.74969 6.875 3.74969C7.3375 3.74969 7.74125 3.49817 7.9575 3.12436C8.06375 2.94091 8.125 2.72747 8.125 2.4996C8.125 2.27173 8.06375 2.05829 7.9575 1.87484ZM7.5 11.2491C7.155 11.2491 6.875 10.9687 6.875 10.6237C6.875 10.2788 7.155 9.99898 7.5 9.99898H10.625C10.97 9.99898 11.25 10.2788 11.25 10.6237C11.25 10.9687 10.97 11.2491 10.625 11.2491H7.5ZM7.5 14.9988C7.155 14.9988 6.875 14.7184 6.875 14.3734C6.875 14.0284 7.155 13.7487 7.5 13.7487H10.625C10.97 13.7487 11.25 14.0284 11.25 14.3734C11.25 14.7184 10.97 14.9988 10.625 14.9988H7.5ZM7.5 7.49938C7.155 7.49938 6.875 7.21901 6.875 6.87404C6.875 6.52907 7.155 6.24929 7.5 6.24929H10.625C10.97 6.24929 11.25 6.52907 11.25 6.87404C11.25 7.21901 10.97 7.49938 10.625 7.49938H7.5Z" fill="#2B2D42"/>
<path fill-rule="evenodd" clip-rule="evenodd" d="M2.991 8.10103C2.74236 7.93527 2.67519 7.59889 2.84095 7.34971C3.0067 7.10108 3.34309 7.03391 3.59226 7.19966L3.99961 7.47105L5.04235 6.2203C5.23357 5.99063 5.57537 5.95921 5.80504 6.15097C6.03472 6.34218 6.06613 6.68398 5.87438 6.91366L4.52017 8.53871C4.34304 8.75159 4.03428 8.79655 3.80352 8.64271L2.991 8.10103ZM2.991 11.3511C2.74236 11.1854 2.67519 10.849 2.84095 10.5998C3.0067 10.3512 3.34309 10.284 3.59226 10.4498L3.99961 10.7212L5.04235 9.4704C5.23357 9.24073 5.57537 9.20931 5.80504 9.40107C6.03472 9.59228 6.06613 9.93408 5.87438 10.1638L4.52017 11.7888C4.34304 12.0017 4.03428 12.0467 3.80352 11.8928L2.991 11.3511ZM2.991 14.6012C2.74236 14.4355 2.67519 14.0991 2.84095 13.8499C3.0067 13.6013 3.34309 13.5341 3.59226 13.6999L3.99961 13.9713L5.04235 12.7205C5.23357 12.4908 5.57537 12.4594 5.80504 12.6512C6.03472 12.8424 6.06613 13.1842 5.87438 13.4139L4.52017 15.0389C4.34304 15.2518 4.03428 15.2968 3.80352 15.1429L2.991 14.6012Z" fill="#2B2D42"/>
</svg>
