<svg width="17" height="20" viewBox="0 0 17 20" fill="none" xmlns="http://www.w3.org/2000/svg">
<path fill-rule="evenodd" clip-rule="evenodd" d="M1.64105 13.0904C2.32194 11.8194 3.6208 11.031 5.03038 11.0331C6.69805 11.0585 8.16175 12.1827 8.66081 13.8214C9.15988 15.4602 8.58171 17.2438 7.22677 18.2453C5.87183 19.2467 4.04583 19.2402 2.69772 18.229L1.26452 19.7659C1.12299 19.9125 0.931503 19.9965 0.730775 20C0.538647 20.002 0.353654 19.9251 0.216799 19.7862C-0.0722664 19.4882 -0.0722664 19.0054 0.216799 18.7073L1.65 17.1399H1.75873C1.00526 15.9132 0.960169 14.3613 1.64105 13.0904ZM2.6483 15.0127C2.6483 16.3674 3.71479 17.4656 5.03038 17.4656V17.4351C6.33448 17.4352 7.39623 16.3555 7.41246 15.0127C7.41246 13.658 6.34597 12.5598 5.03038 12.5598C3.71479 12.5598 2.6483 13.658 2.6483 15.0127Z" fill="black"/>
<path fill-rule="evenodd" clip-rule="evenodd" d="M9.81422 0.223918L16.7331 7.34859C16.898 7.48988 16.9953 7.69776 17 7.91856V15.0432C17 16.3254 16.5054 17.5551 15.6249 18.4618C14.7444 19.3685 13.5502 19.8778 12.305 19.8778H9.46828C9.05886 19.8778 8.72696 19.5361 8.72696 19.1145C8.72696 18.6929 9.05886 18.3511 9.46828 18.3511H12.2556C14.0297 18.3511 15.468 16.8701 15.468 15.0432V8.68192H11.2672C9.76825 8.67634 8.55447 7.42646 8.54905 5.88294V1.55725H6.32511C4.55324 1.56284 3.11819 3.04056 3.11276 4.86513V9.95418C3.11276 10.3758 2.78087 10.7175 2.37145 10.7175C1.96204 10.7175 1.63014 10.3758 1.63014 9.95418V4.86513C1.62224 3.57763 2.1134 2.34008 2.99474 1.4268C3.87607 0.513522 5.07478 -2.56784e-05 6.32511 9.6272e-10H9.29036C9.4869 0.000178171 9.67533 0.08072 9.81422 0.223918ZM10.0317 2.60559V5.88294C10.0317 6.58559 10.5848 7.1552 11.2672 7.1552H14.4104L10.0317 2.60559Z" fill="black"/>
</svg>
