<svg width="18" height="18" viewBox="0 0 18 18" fill="none" xmlns="http://www.w3.org/2000/svg">
<path d="M11.4458 0C7.83178 0 4.89167 2.94011 4.89167 6.55381C4.89167 8.13162 5.44925 9.61908 6.45366 10.8007L5.41937 11.8353L5.04636 11.462C4.84034 11.2563 4.50636 11.2563 4.3007 11.462L0.15438 15.6083C-0.051284 15.8139 -0.0516356 16.1479 0.15438 16.3539L1.64606 17.8456C1.85207 18.0513 2.1857 18.0516 2.39172 17.8456L6.53768 13.6993C6.7437 13.4936 6.7437 13.1597 6.53768 12.9536L6.16503 12.581L7.19932 11.5463C8.38374 12.5532 9.87225 13.1083 11.4458 13.1083C15.0599 13.1083 18 10.1682 18 6.55381C18 2.94011 15.0599 0 11.4458 0ZM11.4458 3.16406C9.57658 3.16406 8.05573 4.68491 8.05573 6.55416C8.05573 6.84526 7.81948 7.08151 7.52839 7.08151C7.23694 7.08151 7.00104 6.84526 7.00104 6.55416C7.00104 4.10343 8.9951 2.10937 11.4458 2.10937C11.7369 2.10937 11.9732 2.34562 11.9732 2.63671C11.9732 2.92781 11.7369 3.16406 11.4458 3.16406Z" fill="#42B3F5"/>
</svg>
