<svg id="Layer_1" data-name="Layer 1" xmlns="http://www.w3.org/2000/svg" viewBox="0 0 187.86 299.05"><path d="M-1965.87-68.48c2.13,1.62,4.51,3,6.35,4.91,30.56,31.78,49.83,69.39,56,113.09,9.52,67.52-9.38,126.35-56,176.13-1.81,1.93-4.22,3.29-6.35,4.91H-1970c-3.18-1.46-5.88-3.35-6.5-7.17-.56-3.49.75-6.18,3.17-8.63A186.48,186.48,0,0,0-1937,163a188.47,188.47,0,0,0,17.28-102.16c-4.72-43.68-22.53-81.26-53-112.87-6.18-6.42-5.22-12.35,2.71-16.42Z" transform="translate(2089 68.48)"/><path d="M-1954,81.09c-.49,41.65-15,77.63-43.68,107.82-2.37,2.49-4.95,4.46-8.6,4a8.32,8.32,0,0,1-7.26-5.53c-1.39-3.65-.29-6.75,2.19-9.67,5.35-6.28,11.06-12.34,15.7-19.13,19.63-28.72,27.16-60.55,22.87-95.06-3.8-30.57-16.74-56.82-38.19-78.86-2.73-2.8-4-6-2.64-9.81a8.29,8.29,0,0,1,7.11-5.71c3.38-.48,6,1.07,8.25,3.43a154,154,0,0,1,35.81,57.77A153.71,153.71,0,0,1-1954,81.09Z" transform="translate(2089 68.48)"/><path d="M-2007,81.25c-.42,27.48-10,51.23-29.07,71.05-3,3.12-6.81,4-10.32,2.37s-5.76-5-5-8.68a13.62,13.62,0,0,1,3.28-6.26c11.45-12.12,19.18-26.24,22.07-42.65,5-28.39-2.29-53.37-22-74.51-2.47-2.65-4.12-5.47-3.25-9.16A8.19,8.19,0,0,1-2045.24,7a8.82,8.82,0,0,1,9,2.65,101.2,101.2,0,0,1,23.88,38.93A101.12,101.12,0,0,1-2007,81.25Z" transform="translate(2089 68.48)"/><path d="M-2059.94,81.2c-.59,13.63-4.94,24.28-13.31,33.23-3.87,4.14-9.18,4.63-12.92,1.25s-3.76-8.89.14-13.22c11.46-12.73,11.48-30.11.05-42.78-3.93-4.36-4-9.74-.25-13.22s9.14-3,13.12,1.34A47.71,47.71,0,0,1-2059.94,81.2Z" transform="translate(2089 68.48)"/></svg>