<svg id="Layer_1" data-name="Layer 1" xmlns="http://www.w3.org/2000/svg" viewBox="0 0 288.34 288.34"><path d="M-296.38,286.29q0,14.52,0,29c0,7.19-3.39,10.63-10.49,10.64h-58.63c-7,0-10.49-3.46-10.49-10.35q0-29.47,0-58.93c0-6.92,3.47-10.34,10.47-10.34q29.32,0,58.64,0c7.09,0,10.49,3.46,10.5,10.62Q-296.36,271.64-296.38,286.29Zm-61.09,21.09H-315V264.93h-42.45Z" transform="translate(425.17 -197.18)"/><path d="M-186,286.31c0,9.77,0,19.54,0,29.31,0,6.81-3.48,10.33-10.21,10.34q-29.61,0-59.21,0c-6.6,0-10.18-3.54-10.19-10.07q0-29.75,0-59.5c0-6.43,3.54-10,9.91-10q29.89-.06,59.79,0c6.33,0,9.88,3.63,9.91,10.05C-186,266.38-186,276.34-186,286.31Zm-18.58,21.12V265H-247v42.46Z" transform="translate(425.17 -197.18)"/><path d="M-336.26,436.36c-9.78,0-19.55,0-29.32,0q-10.41,0-10.42-10.42,0-29.46,0-58.92c0-6.77,3.49-10.26,10.26-10.27q29.6,0,59.21,0c6.57,0,10.13,3.56,10.14,10.12q0,29.75,0,59.5c0,6.4-3.58,10-10,10C-316.34,436.39-326.3,436.36-336.26,436.36Zm21.34-61h-42.45v42.45h42.45Z" transform="translate(425.17 -197.18)"/><path d="M-406.77,215.58v3.84q0,29.75,0,59.48c0,5-1.92,8.09-5.76,9.63a9.1,9.1,0,0,1-12.21-6.17,18.51,18.51,0,0,1-.4-4.27q0-34.9,0-69.82c0-7.6,3.48-11.08,11.07-11.08q35,0,70.1,0a15.67,15.67,0,0,1,5.06.75,9.06,9.06,0,0,1,5.62,10.19,9,9,0,0,1-8.39,7.36c-3.25.15-6.51.07-9.77.07h-55.29Z" transform="translate(425.17 -197.18)"/><path d="M-155.23,215.58h-3.88q-29.88,0-59.76,0c-5.24,0-9.1-3-9.82-7.44a9.12,9.12,0,0,1,7.82-10.79,20.71,20.71,0,0,1,3.15-.15h69.53c7.94,0,11.35,3.42,11.35,11.38q0,35.06,0,70.11c0,6.14-3.44,10.21-8.7,10.46a9,9,0,0,1-9.64-8.82c-.14-5.26,0-10.53,0-15.8V215.58Z" transform="translate(425.17 -197.18)"/><path d="M-406.77,467.12h3.71c19.92,0,39.84,0,59.76,0,4.12,0,7.29,1.43,9.19,5.15a9.09,9.09,0,0,1-5.76,12.82,17.36,17.36,0,0,1-4.26.43q-34.9,0-69.82,0c-7.74,0-11.22-3.49-11.22-11.24q0-34.9,0-69.82a17.67,17.67,0,0,1,.37-4,8.92,8.92,0,0,1,9.87-6.88,8.84,8.84,0,0,1,8.05,8.33c.18,4.78.08,9.58.09,14.36v50.83Z" transform="translate(425.17 -197.18)"/><path d="M-155.23,467.12v-3.8c0-19.92,0-39.84,0-59.76,0-4.25,1.55-7.47,5.46-9.27a9.08,9.08,0,0,1,12.58,6.28,17.66,17.66,0,0,1,.36,4q0,34.92,0,69.82c0,7.61-3.49,11.14-11,11.15q-35.2,0-70.4,0c-6.27,0-10.39-3.53-10.54-8.92a9,9,0,0,1,8.74-9.44c1,0,1.92,0,2.88,0h62Z" transform="translate(425.17 -197.18)"/><path d="M-204.39,387.35c0-6.58,0-12.88,0-19.17a22.12,22.12,0,0,1,.27-4,8.92,8.92,0,0,1,9.75-7.41,8.8,8.8,0,0,1,8.3,8.7q.13,31,0,62a8.85,8.85,0,0,1-9.08,8.81,9.05,9.05,0,0,1-9.2-9.06c-.19-5.84,0-11.68-.06-17.52v-4h-5.9c-7.08,0-14.17,0-21.26,0-5.52,0-9.69-4.14-9.61-9.3s4.11-9,9.54-9.07c8-.05,15.9,0,23.84,0Z" transform="translate(425.17 -197.18)"/><path d="M-265.6,365.79a9,9,0,0,1,9.15-9,9.22,9.22,0,0,1,9.2,9.08,9.41,9.41,0,0,1-9.38,9.28A9.23,9.23,0,0,1-265.6,365.79Z" transform="translate(425.17 -197.18)"/><path d="M-256.53,436.34a9,9,0,0,1-9.07-9.13,9.19,9.19,0,0,1,9-9.23,9.43,9.43,0,0,1,9.31,9.36A9.2,9.2,0,0,1-256.53,436.34Z" transform="translate(425.17 -197.18)"/></svg>