<svg width="18" height="19" viewBox="0 0 18 19" fill="none" xmlns="http://www.w3.org/2000/svg">
<path fill-rule="evenodd" clip-rule="evenodd" d="M8.69062 0.378799C6.29263 0.378799 4.34532 2.32611 4.34532 4.72409C4.34532 7.12208 6.29263 9.06939 8.69062 9.06939C11.0886 9.06939 13.0359 7.12208 13.0359 4.72409C13.0359 2.32611 11.0886 0.378799 8.69062 0.378799ZM8.69062 1.62031C10.4039 1.62031 11.7944 3.01081 11.7944 4.72409C11.7944 6.43738 10.4039 7.82788 8.69062 7.82788C6.97733 7.82788 5.58683 6.43738 5.58683 4.72409C5.58683 3.01081 6.97733 1.62031 8.69062 1.62031Z" fill="#2B2D42"/>
<path fill-rule="evenodd" clip-rule="evenodd" d="M1.24151 16.5185H8.69059C9.03325 16.5185 9.31135 16.7966 9.31135 17.1393C9.31135 17.482 9.03325 17.7601 8.69059 17.7601H0.620756C0.278099 17.7601 0 17.482 0 17.1393C0 17.1393 0 16.6272 0 15.8978C0 12.812 2.50103 10.311 5.58681 10.311H8.69059C9.03325 10.311 9.31135 10.5891 9.31135 10.9317C9.31135 11.2744 9.03325 11.5525 8.69059 11.5525H5.58681C3.18696 11.5525 1.24151 13.4979 1.24151 15.8978V16.5185Z" fill="#2B2D42"/>
<path fill-rule="evenodd" clip-rule="evenodd" d="M13.9677 10.311C11.741 10.311 9.9334 12.1186 9.9334 14.3453C9.9334 16.5719 11.741 18.3796 13.9677 18.3796C16.1944 18.3796 18.002 16.5719 18.002 14.3453C18.002 12.1186 16.1944 10.311 13.9677 10.311ZM13.9677 11.5525C15.509 11.5525 16.7605 12.8039 16.7605 14.3453C16.7605 15.8866 15.509 17.1381 13.9677 17.1381C12.4264 17.1381 11.1749 15.8866 11.1749 14.3453C11.1749 12.8039 12.4264 11.5525 13.9677 11.5525Z" fill="#2B2D42"/>
<path fill-rule="evenodd" clip-rule="evenodd" d="M13.7095 14.3856L15.0745 12.9821C15.3135 12.7363 15.7071 12.7307 15.9523 12.9697C16.1981 13.2087 16.2037 13.6016 15.9647 13.8474L14.1546 15.7085C14.0379 15.8289 13.8771 15.8966 13.7095 15.8966C13.5419 15.8966 13.3817 15.8289 13.2644 15.7085L11.9707 14.3782C11.7317 14.1324 11.7373 13.7394 11.9832 13.5004C12.229 13.2615 12.6219 13.267 12.8609 13.5129L13.7095 14.3856Z" fill="#2B2D42"/>
</svg>
