<svg width="17" height="17" viewBox="0 0 17 17" fill="none" xmlns="http://www.w3.org/2000/svg">
<path fill-rule="evenodd" clip-rule="evenodd" d="M16.7926 6.27826L10.211 0.191304C10.0789 0.0689631 9.89961 0.000152221 9.71265 8.22895e-10H6.89194C5.70254 -2.19375e-05 4.56227 0.438727 3.72389 1.21898C2.88552 1.99924 2.4183 3.05655 2.42581 4.15652V7.30435C2.42581 7.66453 2.74153 7.95652 3.13099 7.95652C3.52045 7.95652 3.83617 7.66453 3.83617 7.30435V4.15652C3.83617 2.59572 5.20428 1.33043 6.89194 1.33043H9.00747V5.02609C9.01262 6.34479 10.1672 7.41262 11.5931 7.41739H15.5891V12.8522C15.584 14.411 14.2189 15.6735 12.5334 15.6783H9.65623C9.26677 15.6783 8.95105 15.9703 8.95105 16.3304C8.95105 16.6906 9.26677 16.9826 9.65623 16.9826H12.5334C14.9999 16.9826 16.9995 15.1334 16.9995 12.8522V6.76522C17.007 6.58331 16.932 6.40677 16.7926 6.27826ZM10.4178 5.02609V2.22609L14.6207 6.11304H11.5931C10.944 6.11304 10.4178 5.6264 10.4178 5.02609Z" fill="black"/>
<path d="M4.87983 10.3652C4.69203 10.3629 4.51118 10.4308 4.37837 10.5536C4.24557 10.6765 4.1721 10.8437 4.17465 11.0174V12.5826L3.42246 13.3217C3.28806 13.4429 3.21225 13.6091 3.21225 13.7826C3.21225 13.9562 3.28806 14.1224 3.42246 14.2435C3.55458 14.3658 3.73383 14.4346 3.92079 14.4348C4.08718 14.4189 4.24289 14.3514 4.3627 14.2435L5.35935 13.3217C5.48993 13.1985 5.56404 13.0334 5.5662 12.8609V11.0174C5.56634 10.6639 5.26192 10.3746 4.87983 10.3652Z" fill="black"/>
<path fill-rule="evenodd" clip-rule="evenodd" d="M0 12.6522C0 10.2509 2.10479 8.30435 4.70118 8.30435C5.94801 8.30435 7.14378 8.76242 8.02542 9.5778C8.90707 10.3932 9.40237 11.4991 9.40237 12.6522C9.40237 15.0534 7.29758 17 4.70118 17C2.10479 17 0 15.0534 0 12.6522ZM1.47781 13.8924C2.02523 15.0869 3.29839 15.8576 4.70118 15.8435C6.59742 15.8244 8.12376 14.3973 8.12365 12.6435C8.12356 11.3461 7.27642 10.1771 5.97885 9.68388C4.68129 9.19069 3.19015 9.47091 2.2036 10.3933C1.21706 11.3157 0.930383 12.6978 1.47781 13.8924Z" fill="black"/>
</svg>
