<svg width="18" height="18" viewBox="0 0 18 18" fill="none" xmlns="http://www.w3.org/2000/svg">
<path d="M17.4716 6.56516H15.9209C15.8324 6.31446 15.7302 6.0684 15.6149 5.82867L16.712 4.73148C16.8112 4.63237 16.8668 4.49797 16.8668 4.3578C16.8668 4.21763 16.8112 4.0832 16.712 3.98413L14.0159 1.28806C13.8096 1.08169 13.475 1.08169 13.2686 1.28806L12.1714 2.38522C11.9316 2.2699 11.6855 2.16767 11.4349 2.07925V0.528505C11.4349 0.236602 11.1983 0 10.9064 0H7.0936C6.80173 0 6.56513 0.236602 6.56513 0.52847V2.07918C6.31453 2.16763 6.06844 2.26987 5.82867 2.38518L4.73148 1.28802C4.52511 1.08165 4.19049 1.08165 3.98409 1.28802L1.28802 3.98409C1.08162 4.19046 1.08162 4.52508 1.28802 4.73144L2.38518 5.82864C2.26983 6.0684 2.16763 6.31453 2.07918 6.56513H0.52847C0.236602 6.56516 0 6.80176 0 7.0936V10.9064C0 11.1983 0.236602 11.4349 0.52847 11.4349H2.07914C2.16763 11.6856 2.26987 11.9316 2.38518 12.1714L1.28802 13.2685C1.08162 13.4749 1.08162 13.8095 1.28802 14.0159L3.98409 16.712C4.0832 16.8111 4.2176 16.8668 4.35777 16.8668C4.49793 16.8668 4.63237 16.8111 4.73144 16.712L5.8286 15.6148C6.06837 15.7302 6.31443 15.8324 6.56509 15.9208V17.4715C6.56509 17.7634 6.80169 18 7.09356 18H10.9064C11.1983 18 11.4349 17.7634 11.4349 17.4715V15.9208C11.6855 15.8324 11.9316 15.7301 12.1714 15.6148L13.2685 16.712C13.4749 16.9183 13.8095 16.9183 14.0159 16.712L16.712 14.0159C16.9184 13.8095 16.9184 13.4749 16.712 13.2685L15.6149 12.1714C15.7302 11.9316 15.8324 11.6855 15.9209 11.4349H17.4715C17.7634 11.4349 18 11.1983 18 10.9064V7.0936C18 6.80176 17.7634 6.56516 17.4716 6.56516ZM9.01327 14.6064C9.00884 14.6064 9.00441 14.6065 9.00002 14.6065C5.90862 14.6065 3.39357 12.0914 3.39357 9.00002C3.39357 5.90862 5.90862 3.39357 9.00002 3.39357L9.01693 3.39367C12.1005 3.40348 14.6065 5.91575 14.6065 9.00002C14.6065 12.086 12.0982 14.5994 9.01327 14.6064Z" fill="#42B3F5"/>
<path d="M9.00409 4.44831C9.00272 4.44831 9.00131 4.44827 8.99994 4.44827C6.48609 4.44827 4.44818 6.48614 4.44818 9C4.44818 11.5138 6.48609 13.5517 8.99994 13.5517C9.00135 13.5517 9.00272 13.5517 9.00409 13.5517C11.516 13.5494 13.5517 11.5124 13.5517 9C13.5517 6.48755 11.516 4.45056 9.00409 4.44831ZM10.6229 10.1248C10.5217 10.6916 10.0491 11.1276 9.44449 11.2512V11.5883C9.44449 11.8316 9.24734 12.0287 9.00409 12.0287C8.76084 12.0287 8.56369 11.8316 8.56369 11.5883V11.2229C8.14364 11.1215 7.7592 10.9028 7.4808 10.5956C7.31746 10.4154 7.33114 10.1369 7.51139 9.97358C7.6916 9.81021 7.97011 9.82389 8.13344 10.0041C8.34347 10.2359 8.66402 10.3813 9.00405 10.4028C9.03316 10.4046 9.06238 10.4059 9.09173 10.4059C9.45869 10.4059 9.71752 10.1842 9.7558 9.96996C9.80745 9.68076 9.42586 9.50674 9.25943 9.44532C9.17231 9.41319 9.08671 9.3807 9.00405 9.34871C8.54498 9.17089 8.17802 9.00756 8.15999 8.9995C8.13875 8.99001 8.11836 8.9789 8.09888 8.96625C7.71691 8.7172 7.52011 8.28042 7.58528 7.82634C7.65482 7.34185 8.00941 6.94711 8.51063 6.79615C8.52842 6.79081 8.54604 6.78645 8.56369 6.7817V6.41629C8.56369 6.17308 8.76084 5.97589 9.00409 5.97589C9.24734 5.97589 9.44449 6.17308 9.44449 6.41629V6.76553C9.97556 6.88229 10.3399 7.1827 10.3626 7.20179C10.5488 7.35827 10.5729 7.63611 10.4164 7.82226C10.2605 8.00774 9.98425 8.03232 9.79806 7.87784C9.78723 7.86916 9.4343 7.58981 9.00412 7.60144C8.92632 7.60355 8.84603 7.61505 8.76471 7.63955C8.51686 7.71422 8.46708 7.88259 8.4572 7.95153C8.44992 8.00237 8.4463 8.12478 8.55694 8.21193C8.62795 8.24305 8.79269 8.31438 9.00409 8.40069C9.16967 8.46829 9.36388 8.54511 9.56427 8.61901C10.4826 8.95767 10.7132 9.61889 10.6229 10.1248Z" fill="#42B3F5"/>
</svg>
