<svg width="17" height="22" viewBox="0 0 17 22" fill="none" xmlns="http://www.w3.org/2000/svg">
<path d="M13.0991 14.8322C13.4062 14.8322 13.6552 15.0812 13.6552 15.3883C13.6552 15.6953 13.4062 15.9443 13.0991 15.9443H8.87516C8.56811 15.9443 8.31913 15.6953 8.31913 15.3883C8.31913 15.0812 8.56811 14.8322 8.87516 14.8322H13.0991Z" fill="#2B2D42"/>
<path d="M4.71273 9.64757H13.0983C13.4053 9.64757 13.6543 9.89655 13.6543 10.2036C13.6543 10.5106 13.4053 10.7596 13.0983 10.7596H4.71273C4.40568 10.7596 4.15671 10.5106 4.15671 10.2036C4.15671 9.89655 4.40568 9.64757 4.71273 9.64757Z" fill="#2B2D42"/>
<path d="M4.15633 12.7966C4.15633 12.4895 4.40531 12.2405 4.71236 12.2405H13.0985C13.4056 12.2405 13.6545 12.4895 13.6545 12.7966C13.6545 13.1036 13.4056 13.3526 13.0985 13.3526H4.71298C4.40593 13.3526 4.15633 13.1036 4.15633 12.7966Z" fill="#2B2D42"/>
<path d="M3.00599 3.00983H8.33954C8.64659 3.00983 8.89557 3.25881 8.89557 3.56586C8.89557 3.87291 8.64659 4.12189 8.33954 4.12189H3.00599C2.4098 4.12189 1.92482 4.60378 1.92482 5.19688V19.0038C1.92482 19.6 2.4098 20.085 3.00599 20.085H14.8062C15.4023 20.085 15.8873 19.6 15.8873 19.0038V5.19749C15.8873 4.6044 15.4023 4.1225 14.8062 4.1225H11.3699V5.992C11.3699 6.21441 11.5503 6.39481 11.7727 6.39481C11.9951 6.39481 12.1755 6.21441 12.1755 5.992V5.41496C12.1755 5.10791 12.4245 4.85893 12.7316 4.85893C13.0386 4.85893 13.2876 5.10791 13.2876 5.41496V5.99261C13.2876 6.82851 12.6074 7.5081 11.7721 7.5081C10.9368 7.5081 10.2566 6.82789 10.2566 5.99261V2.71699C10.2566 1.6525 11.1228 0.786331 12.1873 0.786331C13.2517 0.786331 14.1185 1.6525 14.1185 2.71699V3.01045H14.8062C16.0158 3.01045 17 3.99215 17 5.19811V19.0038C17 20.2135 16.0158 21.1977 14.8062 21.1977H3.00599C1.79632 21.1977 0.812147 20.2135 0.812147 19.0038V5.19749C0.812147 3.99153 1.79632 3.00983 3.00599 3.00983ZM13.0059 2.71699C13.0059 2.26599 12.6389 1.89901 12.1885 1.89901C11.7375 1.89901 11.3705 2.26599 11.3705 2.71699V3.01045H13.0059V2.71699Z" fill="#2B2D42"/>
</svg>
