<svg id="Capa_1" data-name="Capa 1" xmlns="http://www.w3.org/2000/svg" viewBox="0 0 16 16"><path d="M13.7,8.5H12.5a3.59,3.59,0,0,1,.2,1.1v4.7a.9.9,0,0,1-.1.5h2A1.37,1.37,0,0,0,16,13.4V10.9A2.35,2.35,0,0,0,13.7,8.5Z"/><path d="M3.4,9.6a3.59,3.59,0,0,1,.2-1.1H2.3A2.35,2.35,0,0,0,0,10.9v2.5a1.37,1.37,0,0,0,1.4,1.4h2a.75.75,0,0,1-.1-.5l.11-4.61Z"/><path d="M9.4,7.3H6.6A2.26,2.26,0,0,0,4.3,9.6v4.7a.47.47,0,0,0,.5.5h6.5a.47.47,0,0,0,.5-.5V9.6A2.49,2.49,0,0,0,9.4,7.3Z"/><path d="M8,1.2A2.86,2.86,0,0,0,5.2,4,2.91,2.91,0,0,0,6.6,6.4,3.26,3.26,0,0,0,8,6.8a2.3,2.3,0,0,0,1.4-.4A2.91,2.91,0,0,0,10.8,4,2.86,2.86,0,0,0,8,1.2Z"/><path d="M3.1,3.8A2.1,2.1,0,0,0,3.1,8a1.88,1.88,0,0,0,.8-.2,2.19,2.19,0,0,0,1-.9,1.64,1.64,0,0,0,.2-1A1.92,1.92,0,0,0,3.1,3.8Z"/><path d="M12.9,3.8a2.11,2.11,0,0,0-2.1,2.1,3,3,0,0,0,.2,1,2.19,2.19,0,0,0,1,.9,2.92,2.92,0,0,0,.9.2A2.18,2.18,0,0,0,15,5.9,2.18,2.18,0,0,0,12.9,3.8Z"/></svg>