<svg id="Layer_1" data-name="Layer 1" xmlns="http://www.w3.org/2000/svg" viewBox="0 0 388.32 292.24"><path d="M-344.14,462.52q-69.09,0-138.17,0c-26.69-.06-48-16.41-54.16-41.62a62.18,62.18,0,0,1-1.6-14.53q-.15-89.93,0-179.84c0-32.63,23.62-56.14,56.31-56.15q138.17-.06,276.33,0c31.72,0,55.48,23.64,55.54,55.41q.19,90.66,0,181.31c-.06,31.76-23.68,55.31-55.55,55.41C-251.71,462.63-297.92,462.52-344.14,462.52Zm-.37-19.76h136.73c23.81,0,38.14-14.32,38.15-38.11q0-88.23,0-176.45c0-23.8-14.34-38.12-38.15-38.12q-136.23,0-272.48,0c-23.79,0-38.14,14.34-38.14,38.11q0,88.23,0,176.46c0,23.8,14.32,38.1,38.14,38.11Z" transform="translate(538.16 -170.33)"/><path d="M-418.94,407.16c-19.41,0-38.83,0-58.25,0-9.77,0-13.18-3.66-12.82-13.51,1.28-35,30.84-65.29,65.67-67.35,37.51-2.22,70.14,23.48,75.51,59.56a75.35,75.35,0,0,1,.89,10.71c0,6.48-3.64,10.32-10.29,10.52-8.16.23-16.32.08-24.48.08ZM-369.26,387c-1.76-22-25.95-41.53-50.63-41.06-23.91.45-47.65,20.37-48.64,41.06Z" transform="translate(538.16 -170.33)"/><path d="M-418.84,316.44A45.59,45.59,0,0,1-464.38,271c-.11-24.84,20.59-45.42,45.61-45.36a45.56,45.56,0,0,1,45.26,45.68A45.48,45.48,0,0,1-418.84,316.44Zm-25.64-45.75a25.67,25.67,0,0,0,25.13,26c13.9.28,25.63-11.12,25.94-25.19a25.46,25.46,0,0,0-25.17-25.83A25.35,25.35,0,0,0-444.48,270.69Z" transform="translate(538.16 -170.33)"/><path d="M-261.19,306.58c15.83,0,31.66,0,47.49,0,5.53,0,9.21,3,10.24,8a9.48,9.48,0,0,1-5.21,10.57,14.4,14.4,0,0,1-5.67,1.11q-47,.09-94,0c-6.8,0-11.07-3.82-11.16-9.68-.1-6.07,4.25-10,11.31-10C-292.53,306.55-276.86,306.58-261.19,306.58Z" transform="translate(538.16 -170.33)"/><path d="M-261.5,382.53q-22,0-44.07,0a38.1,38.1,0,0,1-5.86-.31,9.54,9.54,0,0,1-8.06-8.61,9.61,9.61,0,0,1,6.2-10.06,18,18,0,0,1,5.75-.88q46.26-.07,92.54,0a17.44,17.44,0,0,1,3.89.34,10,10,0,0,1,7.93,9.87,9.78,9.78,0,0,1-8.88,9.46,53.68,53.68,0,0,1-6.35.22Q-239.95,382.55-261.5,382.53Z" transform="translate(538.16 -170.33)"/><path d="M-261.18,250.41q22,0,44.07,0a41.79,41.79,0,0,1,5.37.19,9.66,9.66,0,0,1,8.49,8.77,9.57,9.57,0,0,1-6.33,10,19.74,19.74,0,0,1-6.23.83q-45.54.07-91.08,0a25.48,25.48,0,0,1-3.91-.14,9.9,9.9,0,0,1-8.71-10.14,9.38,9.38,0,0,1,9.37-9.37c8.15-.27,16.32-.14,24.48-.15Z" transform="translate(538.16 -170.33)"/></svg>