<svg width="20" height="23" viewBox="0 0 20 23" fill="none" xmlns="http://www.w3.org/2000/svg">
<path d="M10 3.05176e-05C6.6916 3.05176e-05 4 2.69163 4 6.00003C4 9.30843 6.6916 12 10 12C13.3084 12 16 9.30843 16 6.00003C16 2.69163 13.3084 3.05176e-05 10 3.05176e-05Z" fill="#42B3F5"/>
<path d="M17.4652 15.9198C15.8225 14.2519 13.6448 13.3334 11.3333 13.3334H8.66667C6.3552 13.3334 4.17751 14.2519 2.53484 15.9198C0.900222 17.5796 0 19.7704 0 22.0889C0 22.4571 0.298489 22.7556 0.666667 22.7556H19.3333C19.7015 22.7556 20 22.4571 20 22.0889C20 19.7704 19.0998 17.5796 17.4652 15.9198Z" fill="#42B3F5"/>
</svg>
