<svg width="16" height="19" viewBox="0 0 16 19" fill="none" xmlns="http://www.w3.org/2000/svg">
<path d="M7.58242 9.09501C8.83234 9.09501 9.91467 8.67659 10.799 7.85105C11.6833 7.02564 12.1316 6.0157 12.1316 4.84894C12.1316 3.68258 11.6833 2.67251 10.7989 1.84683C9.91438 1.02155 8.8322 0.603134 7.58242 0.603134C6.33236 0.603134 5.25032 1.02155 4.36598 1.84696C3.48164 2.67237 3.0332 3.68244 3.0332 4.84894C3.0332 6.0157 3.48164 7.02577 4.36612 7.85118C5.25061 8.67645 6.33279 9.09501 7.58242 9.09501Z" fill="#42B3F5"/>
<path d="M15.1273 14.4624C15.1028 14.0966 15.0531 13.6975 14.98 13.2762C14.9063 12.8516 14.8113 12.4503 14.6976 12.0835C14.5801 11.7044 14.4204 11.33 14.2229 10.9712C14.018 10.5988 13.7772 10.2746 13.5071 10.0078C13.2246 9.7286 12.8788 9.50417 12.4789 9.34046C12.0803 9.17761 11.6387 9.09511 11.1662 9.09511C10.9807 9.09511 10.8012 9.17375 10.4547 9.40677C10.2414 9.55043 9.99197 9.71657 9.71352 9.90033C9.47542 10.057 9.15288 10.2038 8.75448 10.3367C8.36579 10.4666 7.97114 10.5325 7.58161 10.5325C7.19209 10.5325 6.79758 10.4666 6.40847 10.3367C6.01049 10.204 5.68794 10.0572 5.45013 9.90047C5.17431 9.71843 4.92471 9.55229 4.70824 9.40663C4.36213 9.1736 4.18255 9.09497 3.99701 9.09497C3.52442 9.09497 3.0829 9.17761 2.6845 9.3406C2.28486 9.50402 1.93888 9.72846 1.65613 10.0079C1.38614 10.2749 1.14527 10.599 0.940595 10.9712C0.743268 11.33 0.583521 11.7043 0.465929 12.0837C0.352359 12.4505 0.257371 12.8516 0.183598 13.2762C0.11052 13.697 0.0608759 14.0961 0.0363314 14.4628C0.0122029 14.822 0 15.1948 0 15.5714C0 16.5513 0.301606 17.3447 0.89636 17.9297C1.48376 18.5071 2.26101 18.8 3.20618 18.8H11.9579C12.9031 18.8 13.68 18.5072 14.2676 17.9297C14.8625 17.3451 15.1641 16.5516 15.1641 15.5712C15.1639 15.193 15.1516 14.8199 15.1273 14.4624Z" fill="#42B3F5"/>
</svg>
