<svg width="20" height="20" viewBox="0 0 20 20" fill="none" xmlns="http://www.w3.org/2000/svg">
<path d="M12.4194 19.1298C12.3529 19.0908 12.2826 19.0517 12.2162 19.0126L11.806 19.1884C11.0012 19.5322 10.0675 19.2197 9.62998 18.4618L8.92678 17.2429C8.48923 16.485 8.68847 15.5201 9.38777 14.9926L9.74327 14.727C9.74327 14.6879 9.74327 14.6489 9.74327 14.6098C9.74327 14.5707 9.74327 14.5317 9.74327 14.4926L9.38777 14.2269C8.68847 13.6995 8.49314 12.7346 8.92678 11.9767L9.62998 10.7578C9.84094 10.3945 10.173 10.121 10.5676 9.98819C9.59482 9.54283 8.53611 9.31233 7.46568 9.31624C3.34412 9.31233 0 12.6565 0 16.778V18.9423C0 19.5283 0.472709 20.001 1.05871 20.001H12.5795C12.5248 19.8643 12.4897 19.7197 12.4701 19.5713L12.4194 19.1298Z" fill="#42B3F5"/>
<path d="M7.46518 8.19513C9.7285 8.19513 11.5633 6.36035 11.5633 4.09702C11.5633 1.8337 9.7285 -0.00108337 7.46518 -0.00108337C5.20185 -0.00108337 3.36707 1.8337 3.36707 4.09702C3.36707 6.36035 5.20185 8.19513 7.46518 8.19513Z" fill="#42B3F5"/>
<path d="M19.7482 15.8678L18.9082 15.2388C18.9746 14.8247 18.9746 14.3989 18.9082 13.9848L19.7482 13.3558C20.006 13.1644 20.0763 12.8089 19.9161 12.5276L19.2129 11.3087C19.0528 11.0313 18.709 10.9141 18.4121 11.043L17.4471 11.4532C17.119 11.1876 16.7517 10.9766 16.3611 10.8243L16.236 9.78119C16.197 9.46084 15.9274 9.22253 15.6032 9.22253H14.1929C13.8725 9.22253 13.599 9.46475 13.56 9.78119L13.435 10.8243C13.0404 10.9766 12.6771 11.1876 12.3489 11.4532L11.3839 11.043C11.087 10.918 10.7432 11.0313 10.5831 11.3087L9.87987 12.5276C9.7197 12.805 9.79002 13.1605 10.0479 13.3558L10.8878 13.9848C10.8214 14.3989 10.8214 14.8247 10.8878 15.2388L10.0479 15.8678C9.79002 16.0631 9.7197 16.4186 9.87987 16.696L10.5831 17.9149C10.7432 18.1923 11.087 18.3095 11.3839 18.1845L12.3489 17.7704C12.6771 18.036 13.0443 18.247 13.435 18.3993L13.56 19.4424C13.599 19.7628 13.8686 20.0011 14.1929 20.0011H15.6032C15.9235 20.0011 16.197 19.7589 16.236 19.4424L16.3611 18.3993C16.7517 18.247 17.119 18.036 17.4471 17.7704L18.4121 18.1806C18.709 18.3056 19.0528 18.1923 19.2129 17.911L19.9161 16.6921C20.0763 16.4186 20.006 16.0631 19.7482 15.8678ZM14.8961 16.1335C14.0561 16.1335 13.3724 15.4498 13.3724 14.6098C13.3724 13.7699 14.0561 13.0862 14.8961 13.0862C15.736 13.0862 16.4197 13.7699 16.4197 14.6098C16.4197 15.4498 15.736 16.1335 14.8961 16.1335Z" fill="#42B3F5"/>
</svg>
