<svg width="18" height="19" viewBox="0 0 18 19" fill="none" xmlns="http://www.w3.org/2000/svg">
<path d="M0 2.46485V16.3173C0 17.6477 1.09567 18.7434 2.42613 18.7434H12.835C14.1655 18.7434 15.2611 17.6477 15.2611 16.3173V12.952L14.7133 13.4998C14.1655 14.0477 13.3828 14.439 12.6002 14.6738L10.9567 14.9868C10.2524 15.1433 9.46973 14.9085 9.07842 14.3607C8.68711 13.8911 8.53058 13.3433 8.68711 12.7172L9.07842 10.9954C9.23494 10.2128 9.62625 9.50845 10.2524 8.88235L14.1655 4.96924C14.4785 4.65619 14.9481 4.34314 15.3394 4.18662V2.46485C15.3394 1.13439 14.2437 0.0387192 12.9133 0.0387192H2.42613C1.09567 0.0387192 0 1.13439 0 2.46485ZM3.83485 2.7779H11.348C11.8176 2.7779 12.1306 3.09095 12.1306 3.56052C12.1306 4.03009 11.8176 4.34314 11.348 4.34314H3.83485C3.36528 4.34314 3.05223 4.03009 3.05223 3.56052C3.05223 3.16921 3.44354 2.7779 3.83485 2.7779ZM3.83485 5.98665H8.21753C8.68711 5.98665 9.00016 6.2997 9.00016 6.76927C9.00016 7.23884 8.68711 7.55189 8.21753 7.55189H3.83485C3.36528 7.55189 3.05223 7.23884 3.05223 6.76927C3.05223 6.2997 3.44354 5.98665 3.83485 5.98665Z" fill="#42B3F5"/>
<path d="M17.5307 6.14314C16.9046 5.51704 15.809 5.51704 15.1829 6.14314L11.2697 10.0563C10.8784 10.4476 10.6436 10.8389 10.5654 11.3867L10.1741 13.0302C10.0958 13.265 10.3306 13.4998 10.5654 13.4215L12.2872 13.0302C12.7567 12.952 13.2263 12.6389 13.6176 12.3259L17.5307 8.41275C18.1568 7.78665 18.1568 6.76924 17.5307 6.14314Z" fill="#42B3F5"/>
</svg>
